<?xml version="1.0" encoding="UTF-8"?>
<svg version="1.1" xmlns="http://www.w3.org/2000/svg" width="1024" height="1024">
<path d="M0 0 C337.92 0 675.84 0 1024 0 C1024 337.92 1024 675.84 1024 1024 C686.08 1024 348.16 1024 0 1024 C0 686.08 0 348.16 0 0 Z " fill="#FDFDFD" transform="translate(0,0)"/>
<path d="M0 0 C2.73058469 1.04404709 4.1850125 2.66465669 6.125 4.8125 C4.47434794 8.79517793 1.70901848 11.70432509 -1.125 14.875 C-15.81353767 31.67993124 -28.15432523 50.27073129 -38.875 69.8125 C-39.31714844 70.6070459 -39.75929688 71.4015918 -40.21484375 72.22021484 C-56.76210453 102.1140298 -68.88169075 135.12238783 -74.875 168.8125 C-75.03355469 169.67584961 -75.19210937 170.53919922 -75.35546875 171.42871094 C-82.42946143 210.16280995 -84.97644803 252.59848642 -76.4609375 291.33984375 C-75.79802988 295.26867623 -75.77894151 298.83480541 -75.875 302.8125 C-75.215 302.8125 -74.555 302.8125 -73.875 302.8125 C-73.7925 301.98363281 -73.71 301.15476562 -73.625 300.30078125 C-72.71006122 296.04536285 -70.98128899 292.77438149 -68.875 289 C-68.50632812 288.32001953 -68.13765625 287.64003906 -67.7578125 286.93945312 C-65.0549794 281.9924794 -65.0549794 281.9924794 -63.875 280.8125 C-63.63801713 279.4077971 -63.45532884 277.99383807 -63.296875 276.578125 C-62.00951096 265.92633613 -60.48419673 256.58242128 -55.875 246.8125 C-55.43285156 245.8121875 -54.99070312 244.811875 -54.53515625 243.78125 C-50.92891714 236.02933434 -46.21821212 229.46011291 -40.875 222.8125 C-40.33746094 222.131875 -39.79992187 221.45125 -39.24609375 220.75 C-35.55871757 216.24878875 -31.37826077 212.48380242 -26.875 208.8125 C-26.01132812 208.09964844 -25.14765625 207.38679687 -24.2578125 206.65234375 C-0.73570136 188.07051341 27.54413204 181.60121373 56.9375 181.5 C57.98398209 181.49421432 57.98398209 181.49421432 59.05160522 181.48831177 C71.79950907 181.45361211 84.11866468 182.83065935 96.5 185.9375 C97.24765625 186.11925781 97.9953125 186.30101562 98.765625 186.48828125 C100.55352867 186.92379625 102.33950641 187.36720741 104.125 187.8125 C99.11060612 220.43088398 81.61045785 251.16870038 59.125 274.8125 C58.25101563 275.78316406 58.25101563 275.78316406 57.359375 276.7734375 C41.74603659 293.56960458 15.25357857 306.63078306 -7.61962891 307.97363281 C-22.35646575 308.18115991 -36.41264104 307.77191085 -50.875 304.8125 C-47.31321477 293.25415773 -40.68178286 283.21197357 -33.8125 273.375 C-33.23532227 272.54726074 -32.65814453 271.71952148 -32.06347656 270.86669922 C-26.68728043 263.30194958 -20.98002658 256.56892928 -13.8828125 250.578125 C-11.89776058 248.83251514 -10.12115798 246.98860331 -8.3125 245.0625 C5.03531843 231.58458588 22.84441187 221.29064925 40.125 213.8125 C41.46109155 213.15137854 42.7949422 212.48567789 44.125 211.8125 C-0.83795621 229.31574738 -39.70957226 254.23948211 -59.95703125 299.96875 C-68.70040374 321.07841594 -66.39717404 338.57782799 -57.88720703 359.20703125 C-52.7760521 371.36550076 -46.88255413 383.15874645 -40.76953125 394.83984375 C-36.21340278 403.62537483 -32.65959383 412.299467 -29.875 421.8125 C-29.66875 422.493125 -29.4625 423.17375 -29.25 423.875 C-28.74940646 426.46139996 -28.78117215 428.93096079 -28.8125 431.5625 C-28.82152344 432.54734375 -28.83054687 433.5321875 -28.83984375 434.546875 C-28.85144531 435.29453125 -28.86304688 436.0421875 -28.875 436.8125 C-27.75867188 436.77769531 -26.64234375 436.74289062 -25.4921875 436.70703125 C7.13365446 436.00676928 43.21095917 443.48875174 72.125 458.8125 C72.125 459.1425 72.125 459.4725 72.125 459.8125 C-1.465 459.8125 -75.055 459.8125 -150.875 459.8125 C-150.875 459.1525 -150.875 458.4925 -150.875 457.8125 C-115.6952079 443.87609291 -115.6952079 443.87609291 -102.078125 441.9453125 C-87.9833782 440.26965309 -87.9833782 440.26965309 -76.64453125 432.421875 C-72.00236256 425.57646951 -70.17064875 420.25788982 -70.3125 411.9375 C-70.32273193 411.01984863 -70.33296387 410.10219727 -70.34350586 409.15673828 C-70.75465396 395.66222875 -75.48212425 383.61044666 -80.21264648 371.12402344 C-87.01116854 352.99708851 -91.64089177 333.82501375 -95.1875 314.8125 C-100.15595946 291.6354556 -112.0597282 268.23363519 -126.875 249.8125 C-127.32762207 249.24853516 -127.78024414 248.68457031 -128.24658203 248.10351562 C-131.36526931 244.25551875 -134.58408397 240.51415441 -137.875 236.8125 C-138.50535156 236.09707031 -139.13570312 235.38164063 -139.78515625 234.64453125 C-159.1963148 213.95351609 -187.54499242 200.97400193 -213.875 191.8125 C-213.1221875 192.14121094 -212.369375 192.46992188 -211.59375 192.80859375 C-171.78119324 210.63727511 -133.59239178 242.43464632 -116.875 283.8125 C-116.875 284.4725 -116.875 285.1325 -116.875 285.8125 C-150.23333983 291.95072683 -180.60218833 288.71088887 -209.17578125 269.60546875 C-237.09822178 249.04718836 -255.36814628 219.17212041 -265.75 186.4375 C-266.1521875 185.21933594 -266.554375 184.00117188 -266.96875 182.74609375 C-267.53722656 180.97298828 -267.53722656 180.97298828 -268.1171875 179.1640625 C-268.4560498 178.11041504 -268.79491211 177.05676758 -269.14404297 175.97119141 C-269.94851539 172.49481727 -270.00091219 169.3688198 -269.875 165.8125 C-258.55102457 163.36314918 -247.49712957 161.13110427 -235.875 160.8125 C-234.76253906 160.77253906 -233.65007812 160.73257813 -232.50390625 160.69140625 C-195.39292818 159.97530338 -159.15552131 172.42685915 -132.125 198.0625 C-117.48513366 213.17118302 -107.67926424 233.25804836 -107.83984375 254.33984375 C-107.07127257 261.08178322 -102.36473738 267.16431565 -98.875 272.8125 C-98.73434952 264.55271293 -98.62856168 256.29344764 -98.56412697 248.03274918 C-98.53316023 244.19457168 -98.49134861 240.35722862 -98.42236328 236.51953125 C-98.11848315 219.14767925 -98.06407588 203.14166618 -104.875 186.8125 C-105.19810654 186.01432861 -105.52121307 185.21615723 -105.85411072 184.39379883 C-111.79248925 169.79868114 -119.10680109 156.01410859 -128.60107422 143.41503906 C-130.90982583 140.32861252 -132.63355477 137.46899715 -133.875 133.8125 C-131.565 132.1625 -129.255 130.5125 -126.875 128.8125 C-123.71057811 130.17098538 -122.01871384 131.54137606 -119.9921875 134.3125 C-119.46947266 135.02591553 -118.94675781 135.73933105 -118.40820312 136.47436523 C-117.86099609 137.24594971 -117.31378906 138.01753418 -116.75 138.8125 C-116.17958984 139.61051025 -115.60917969 140.40852051 -115.02148438 141.23071289 C-107.00424844 152.659753 -100.26597253 164.93091302 -94.875 177.8125 C-93.62980769 175.64262821 -93.62980769 175.64262821 -93.625 172.1875 C-93.13068126 166.8948804 -91.42372986 162.03096642 -89.51464844 157.10107422 C-86.07307224 147.29877195 -89.05017314 137.27086411 -91.75 127.625 C-98.14301583 102.8955308 -98.26480362 78.68334678 -98.078125 53.2890625 C-98.07372406 52.39708664 -98.06932312 51.50511078 -98.06478882 50.58610535 C-97.88054327 33.82358654 -97.88054327 33.82358654 -95.875 29.8125 C-92.245 29.8125 -88.615 29.8125 -84.875 29.8125 C-84.89071045 31.47522949 -84.9064209 33.13795898 -84.92260742 34.85107422 C-84.97151695 40.42289473 -85.00569244 45.99468397 -85.03043652 51.56666374 C-85.04591361 54.93605275 -85.06851265 58.30502612 -85.10131836 61.67431641 C-85.28693482 81.2477543 -84.1019186 98.90662421 -78.875 117.8125 C-75.57606817 114.03649187 -74.03135725 109.65276049 -72.1875 105.0625 C-63.80136804 84.7282077 -53.47222235 64.85588991 -40.875 46.8125 C-40.03405296 45.55107944 -39.19567293 44.28794512 -38.359375 43.0234375 C-32.14122861 33.68946395 -25.3323072 25.17923491 -17.875 16.8125 C-16.60291751 15.35525616 -15.33185699 13.89711855 -14.0625 12.4375 C-13.5365625 11.84066406 -13.010625 11.24382812 -12.46875 10.62890625 C-11.29378311 9.28978958 -10.12853324 7.94213199 -8.96875 6.58984375 C-8.3396875 5.85894531 -7.710625 5.12804687 -7.0625 4.375 C-6.49917969 3.71628906 -5.93585938 3.05757813 -5.35546875 2.37890625 C-3.56283487 0.48221447 -2.64153794 -0.26415379 0 0 Z " fill="#86AD11" transform="translate(553.875,301.1875)"/>
<path d="M0 0 C10.1363818 5.46813869 26.80337157 14.90913814 30.64208984 26.42529297 C33.35226242 36.72394877 27.77975538 45.39709375 22.85693359 54.06982422 C7.08215128 80.78743022 7.08215128 80.78743022 -4.35791016 85.42529297 C-18.83699889 87.84177563 -30.49818385 80.8477372 -42.17041016 73.11279297 C-62.78321768 58.14520158 -62.78321768 58.14520158 -65.02978516 48.55810547 C-65.40945912 33.94065774 -56.53505822 21.91793187 -48.35791016 10.42529297 C-47.68630859 9.44431641 -47.01470703 8.46333984 -46.32275391 7.45263672 C-32.94659213 -11.69666617 -19.44194946 -9.68773764 0 0 Z " fill="#FAB706" transform="translate(729.35791015625,299.57470703125)"/>
<path d="M0 0 C10.08081022 5.07356567 22.40247768 11.43727958 27.6328125 21.89794922 C30.73788678 37.51120006 18.97752884 55.88836248 10.921875 68.59716797 C6.83285509 74.71284185 2.64150583 80.05758403 -4.3671875 82.89794922 C-22.95572946 85.200311 -41.83893788 74.25761829 -56.41796875 63.44091797 C-61.75184482 59.21871146 -64.94977306 55.58144719 -66.3671875 48.89794922 C-66.3962068 42.07333601 -64.73884862 36.20427526 -61.9921875 30.02294922 C-61.64349609 29.22211914 -61.29480469 28.42128906 -60.93554688 27.59619141 C-58.14141954 21.33005714 -55.08869018 15.2044644 -51.8671875 9.14794922 C-51.44131348 8.32697754 -51.01543945 7.50600586 -50.57666016 6.66015625 C-38.81873256 -14.73671687 -18.8359643 -8.76913602 0 0 Z " fill="#A3BD09" transform="translate(624.3671875,231.10205078125)"/>
<path d="M0 0 C5.73374434 3.78219882 11.19811682 7.9791621 13.9375 14.4375 C15.01395666 22.30342945 13.29537433 28.55165668 10 35.625 C9.39091797 36.97911987 9.39091797 36.97911987 8.76953125 38.3605957 C-4.74949884 67.88914078 -4.74949884 67.88914078 -15.3828125 73.70703125 C-25.22187048 77.35915616 -33.71474569 74.68317979 -42.97705078 70.59179688 C-52.22384795 66.32926546 -60.80734007 61.41537443 -69.0625 55.4375 C-69.69929687 54.98632812 -70.33609375 54.53515625 -70.9921875 54.0703125 C-75.79071516 50.41770189 -78.50498966 46.56847808 -79.55078125 40.6953125 C-80.67372409 23.03648583 -68.17789381 4.00593989 -58.0625 -9.5625 C-42.71863215 -26.44809619 -15.32829477 -9.31843056 0 0 Z " fill="#DD5FAB" transform="translate(642.0625,369.5625)"/>
<path d="M0 0 C2.03436973 0.06208114 4.0656075 0.08194733 6.10083008 0.09375 C19.38045889 0.30134557 36.26322054 0.8375608 46.17700195 11.046875 C53.87853239 19.91131459 51.21912748 34.47871438 50.7355957 45.5625 C50.22957861 51.03103559 49.16668951 56.25746855 47.7355957 61.5625 C47.53063477 62.37332031 47.32567383 63.18414062 47.11450195 64.01953125 C45.30386863 69.90127802 41.11464707 75.4336262 35.88793945 78.7265625 C23.96383635 83.35770236 7.01072774 81.55003894 -5.2019043 78.8125 C-6.2542627 78.57720581 -6.2542627 78.57720581 -7.32788086 78.3371582 C-14.05970132 76.64609246 -20.58535979 74.11313197 -25.1394043 68.6875 C-25.97084961 67.73230469 -25.97084961 67.73230469 -26.8190918 66.7578125 C-30.73163511 60.81497645 -30.61621315 54.74949173 -30.5769043 47.875 C-30.57198975 46.86348877 -30.5670752 45.85197754 -30.56201172 44.80981445 C-30.09658186 14.36115419 -30.09658186 14.36115419 -20.55322266 4.85864258 C-14.02209127 -0.09816827 -8.02175119 -0.24578914 0 0 Z " fill="#1EA0D7" transform="translate(452.264404296875,238.4375)"/>
<path d="M0 0 C5.66444151 -0.2960781 9.62062457 0.2983049 14.25 3.6875 C26.19693085 14.45286626 29.36984111 33.35699255 31.02734375 48.7265625 C31.32333447 55.0073412 30.38193043 59.92990574 27.02734375 65.2890625 C16.26573055 77.10058918 -5.72361435 81.10775716 -20.84765625 81.8515625 C-27.13937738 81.6737866 -31.60580479 79.86061012 -35.97265625 75.2890625 C-40.18627701 69.66756133 -42.49955858 63.69280502 -44.59765625 57.0390625 C-44.89615479 56.11174316 -45.19465332 55.18442383 -45.50219727 54.22900391 C-53.26609731 29.83427099 -53.26609731 29.83427099 -50.1171875 20.84765625 C-44.38132038 10.41720251 -30.3853722 6.67393623 -19.640625 3.2890625 C-13.12641741 1.5130911 -6.70326375 0.65182854 0 0 Z " fill="#F34D4C" transform="translate(398.97265625,349.7109375)"/>
<path d="M0 0 C-2.66016324 1.77344216 -4.85841469 2.81720557 -7.81640625 3.9453125 C-8.74517578 4.29980469 -9.67394531 4.65429688 -10.63085938 5.01953125 C-12.08202148 5.56673828 -12.08202148 5.56673828 -13.5625 6.125 C-14.53380859 6.49753906 -15.50511719 6.87007812 -16.50585938 7.25390625 C-23.74327495 10 -23.74327495 10 -26 10 C-26 10.66 -26 11.32 -26 12 C47.26 11.67 120.52 11.34 196 11 C188.08 8.03 180.16 5.06 172 2 C172 1.67 172 1.34 172 1 C179.88856245 0.62958055 187.29519431 1.22566783 195.02880859 2.71533203 C201.34720781 3.92415533 207.68645968 4.83746414 214.0625 5.6875 C215.04532959 5.81874268 216.02815918 5.94998535 217.04077148 6.08520508 C219.36017098 6.39284894 221.67986449 6.69796478 224 7 C224 7.66 224 8.32 224 9 C224.87140625 9.04898438 225.7428125 9.09796875 226.640625 9.1484375 C247.70974058 10.47095774 247.70974058 10.47095774 254 14 C254 14.66 254 15.32 254 16 C248.09421379 18.94060645 242.58701508 19.83984467 236.0625 20.5625 C235.00111816 20.68616943 233.93973633 20.80983887 232.84619141 20.93725586 C222.77709758 22.08109896 212.7031453 23.02204613 202.59538269 23.74304199 C200.25356507 23.9104091 197.91207564 24.08245497 195.57099915 24.2598877 C162.26363718 26.70361005 128.86555701 26.27167195 95.491907 26.20059592 C88.93593056 26.18728773 82.37998767 26.18489576 75.82399952 26.1855461 C67.81494768 26.18623202 59.80591477 26.17924093 51.7968688 26.1700995 C49.55634197 26.16801392 47.31581838 26.16726481 45.07529068 26.16686058 C19.37829143 26.15791242 -6.35807043 25.88534214 -32 24.0625 C-33.26070313 23.97605225 -34.52140625 23.88960449 -35.8203125 23.80053711 C-39.54743846 23.54100302 -43.27369866 23.2710773 -47 23 C-48.13566406 22.92136719 -49.27132812 22.84273437 -50.44140625 22.76171875 C-81.88130894 20.57169011 -81.88130894 20.57169011 -90 16 C-89.67 15.01 -89.34 14.02 -89 13 C-81.87782174 9.77567382 -73.49173119 9.3257231 -65.796875 8.52734375 C-62.0340391 8.00472765 -58.6441219 7.05540142 -55 6 C-52.0346564 5.40216568 -49.05460699 4.94227222 -46.0625 4.5 C-45.21292725 4.37254395 -44.36335449 4.24508789 -43.48803711 4.11376953 C-35.34007421 2.94820002 -27.1658134 2.25079273 -18.95922852 1.64648438 C-17.99428467 1.57494141 -17.02934082 1.50339844 -16.03515625 1.4296875 C-15.1831665 1.37022949 -14.33117676 1.31077148 -13.45336914 1.24951172 C-10.96199092 1.03596555 -10.96199092 1.03596555 -8.39233398 0.47705078 C-5.55733527 -0.08827093 -2.88322552 -0.06705176 0 0 Z " fill="#DDDDDC" transform="translate(429,749)"/>
<path d="M0 0 C3.10141328 1.35805266 4.23459981 4.01418874 5.91796875 6.83984375 C4.45502561 10.41854875 2.61401267 12.10154548 -0.45703125 14.40234375 C-30.80227436 38.03326583 -52.61684483 70.67701245 -65.1809082 106.9284668 C-66.87826889 111.73796257 -66.87826889 111.73796257 -69.08203125 112.83984375 C-68.20184415 75.21184538 -51.14139854 44.01196771 -24.359375 17.921875 C-19.83016733 13.60308039 -15.02076344 9.67851565 -10.08203125 5.83984375 C-8.93347656 4.89044922 -8.93347656 4.89044922 -7.76171875 3.921875 C-7.06304688 3.35855469 -6.364375 2.79523438 -5.64453125 2.21484375 C-4.74927734 1.48394531 -4.74927734 1.48394531 -3.8359375 0.73828125 C-2.08203125 -0.16015625 -2.08203125 -0.16015625 0 0 Z " fill="#80A61B" transform="translate(551.08203125,419.16015625)"/>
<path d="M0 0 C2.36328125 0.1328125 2.36328125 0.1328125 5 1 C6.23046875 3.6171875 6.23046875 3.6171875 7.1875 6.875 C8.79685376 11.48071584 8.79685376 11.48071584 12.46875 14.390625 C15.15014382 15.16080516 15.15014382 15.16080516 17.79296875 15.5703125 C20 16 20 16 22 18 C21.92578125 20.01171875 21.92578125 20.01171875 21 22 C18.85546875 23.01953125 18.85546875 23.01953125 16.1875 23.8125 C12.54252274 25.13321929 10.43365042 26.0147165 8.5 29.4375 C8.005 30.613125 7.51 31.78875 7 33 C6.5875 33.969375 6.175 34.93875 5.75 35.9375 C5.5025 36.618125 5.255 37.29875 5 38 C3.68 38 2.36 38 1 38 C0.54173828 36.89591797 0.54173828 36.89591797 0.07421875 35.76953125 C-2.67822076 29.90024474 -4.68598415 26.583306 -10.8125 24.0625 C-12.24529297 23.58490234 -12.24529297 23.58490234 -13.70703125 23.09765625 C-16 22 -16 22 -16.82421875 19.87109375 C-16.88222656 19.25363281 -16.94023438 18.63617188 -17 18 C-15.78763672 17.55914062 -15.78763672 17.55914062 -14.55078125 17.109375 C-7.80636994 14.30030631 -7.80636994 14.30030631 -3.08984375 8.9296875 C-1.89293901 5.97755511 -0.85383556 3.06785103 0 0 Z " fill="#32BBDE" transform="translate(702,216)"/>
<path d="M0 0 C-3.23843784 2.15895856 -5.81365904 2.87914982 -9.5625 3.875 C-20.6237096 6.33460141 -20.6237096 6.33460141 -29 13 C69.505 12.505 69.505 12.505 170 12 C169.01 11.01 168.02 10.02 167 9 C172.34844008 9.53484401 176.35796103 11.46690767 181 14 C181 14.33 181 14.66 181 15 C107.41 15 33.82 15 -42 15 C-42 14.34 -42 13.68 -42 13 C-37.87742652 11.38954915 -33.75152075 9.78780659 -29.625 8.1875 C-28.46871094 7.73568359 -27.31242187 7.28386719 -26.12109375 6.81835938 C-7.06219588 -0.55754178 -7.06219588 -0.55754178 0 0 Z " fill="#438E3A" transform="translate(445,746)"/>
<path d="M0 0 C1.8984375 0.234375 1.8984375 0.234375 4 1 C4.9140625 2.890625 4.9140625 2.890625 5.625 5.25 C7.31663559 9.56160778 9.10294176 11.0356983 13.25 13.0625 C14.82137068 13.73691776 16.40141354 14.39290324 18 15 C17.67 16.32 17.34 17.64 17 19 C15.906875 19.268125 14.81375 19.53625 13.6875 19.8125 C10.16944687 20.94543236 9.20513582 21.29369695 7 24 C6.01371583 26.03077684 6.01371583 26.03077684 5.3125 28.1875 C5.06113281 28.90292969 4.80976562 29.61835938 4.55078125 30.35546875 C4.36902344 30.89816406 4.18726563 31.44085938 4 32 C2.12109375 31.7421875 2.12109375 31.7421875 0 31 C-1.08984375 29.2578125 -1.08984375 29.2578125 -1.9375 27.125 C-4.19710774 22.18210807 -6.89411834 20.88915003 -11.8125 18.8125 C-12.534375 18.544375 -13.25625 18.27625 -14 18 C-14 16.68 -14 15.36 -14 14 C-13.18595703 13.74476563 -13.18595703 13.74476563 -12.35546875 13.484375 C-6.64671289 11.59283624 -6.64671289 11.59283624 -3 7 C-1.93269353 4.68584019 -0.95513687 2.36510083 0 0 Z " fill="#EF5552" transform="translate(687,424)"/>
<path d="M0 0 C3.23406001 1.15502143 3.99471266 1.99074715 5.75 5.0625 C7.60489658 8.12238034 7.60489658 8.12238034 9.9609375 8.47265625 C10.67507813 8.52292969 11.38921875 8.57320313 12.125 8.625 C14.043125 8.810625 14.043125 8.810625 16 9 C17.5 11.0625 17.5 11.0625 18 13 C16.329375 13.9590625 16.329375 13.9590625 14.625 14.9375 C11.36912511 17.21332366 10.38764746 18.93736306 9.5625 22.8125 C9.34681183 24.20425629 9.14949944 25.5995869 9 27 C7.68 27 6.36 27 5 27 C3.83203125 25.50390625 3.83203125 25.50390625 2.8125 23.5625 C1.22933083 21.09315438 0.53045227 20.15717104 -2.3203125 19.3125 C-4.56413043 19.08741482 -6.74596517 18.96562474 -9 19 C-9.33 17.35 -9.66 15.7 -10 14 C-9.05125 13.38125 -8.1025 12.7625 -7.125 12.125 C-4.05554891 10.18029031 -4.05554891 10.18029031 -2 8 C-1.63239269 5.67182036 -1.29758419 3.3381615 -1 1 C-0.67 0.67 -0.34 0.34 0 0 Z " fill="#F8CC0E" transform="translate(324,323)"/>
<path d="M0 0 C3 1 3 1 3.95703125 2.7421875 C4.23933594 3.44601563 4.52164063 4.14984375 4.8125 4.875 C6.37303495 8.2632432 6.89341815 8.93441117 10.25 11 C11.1575 11.33 12.065 11.66 13 12 C12.875 13.875 12.875 13.875 12 16 C11.071875 16.268125 10.14375 16.53625 9.1875 16.8125 C4.67258662 18.49452655 4.05001701 20.74227236 2 25 C0.68 24.67 -0.64 24.34 -2 24 C-2.33 22.02 -2.66 20.04 -3 18 C-5.97 17.01 -8.94 16.02 -12 15 C-12 13.68 -12 12.36 -12 11 C-11.45730469 10.78085938 -10.91460938 10.56171875 -10.35546875 10.3359375 C-6.38125532 8.57439425 -4.38246245 7.62921242 -2.0625 3.8125 C-1.711875 2.884375 -1.36125 1.95625 -1 1 C-0.67 0.67 -0.34 0.34 0 0 Z " fill="#FDC70E" transform="translate(550,186)"/>
<path d="M0 0 C0.99 0.33 1.98 0.66 3 1 C3.61875 2.670625 3.61875 2.670625 4.25 4.375 C5.13702473 6.71003267 5.62629039 7.75838462 7.74609375 9.12890625 C9.46223986 9.84367938 11.22978638 10.43219563 13 11 C12.875 12.875 12.875 12.875 12 15 C11.071875 15.268125 10.14375 15.53625 9.1875 15.8125 C4.67258662 17.49452655 4.05001701 19.74227236 2 24 C1.01 23.67 0.02 23.34 -1 23 C-1.2475 21.865625 -1.495 20.73125 -1.75 19.5625 C-2.1625 18.386875 -2.575 17.21125 -3 16 C-6.51400668 14.45913678 -6.51400668 14.45913678 -10 14 C-10 12.68 -10 11.36 -10 10 C-8.906875 9.649375 -7.81375 9.29875 -6.6875 8.9375 C-3.53564713 7.62316459 -2.37683541 6.46435287 -1.0625 3.3125 C-0.711875 2.219375 -0.36125 1.12625 0 0 Z " fill="#71D6A2" transform="translate(379,294)"/>
<path d="M0 0 C2.3359375 0.12890625 2.3359375 0.12890625 5 1 C6.4765625 3.65234375 6.4765625 3.65234375 7.625 6.9375 C9.20664826 11.78475092 9.20664826 11.78475092 13 15 C12.01 15.495 12.01 15.495 11 16 C10.113125 15.690625 9.22625 15.38125 8.3125 15.0625 C4.61376679 13.87611388 1.86241789 13.64236871 -2 14 C-4.40083438 15.35885116 -4.40083438 15.35885116 -6 17 C-5.67 19.64 -5.34 22.28 -5 25 C-8.9129896 24.45400145 -12.50314454 23.89829296 -16 22 C-16.63671875 19.92578125 -16.63671875 19.92578125 -17 18 C-15.78763672 17.55914062 -15.78763672 17.55914062 -14.55078125 17.109375 C-7.80636994 14.30030631 -7.80636994 14.30030631 -3.08984375 8.9296875 C-1.89293901 5.97755511 -0.85383556 3.06785103 0 0 Z " fill="#40C6E6" transform="translate(702,216)"/>
<path d="M0 0 C1.875 0.125 1.875 0.125 4 1 C4.309375 1.94875 4.61875 2.8975 4.9375 3.875 C6.23717857 7.69758403 7.58343005 8.11189556 11 10 C11 10.99 11 11.98 11 13 C9.906875 13.226875 8.81375 13.45375 7.6875 13.6875 C3.87511789 14.65747195 3.87511789 14.65747195 2.0625 17.625 C1.711875 18.40875 1.36125 19.1925 1 20 C0.01 19.67 -0.98 19.34 -2 19 C-2.268125 18.05125 -2.53625 17.1025 -2.8125 16.125 C-3.73798671 12.71888261 -3.73798671 12.71888261 -7.125 11.125 C-8.07375 10.75375 -9.0225 10.3825 -10 10 C-9.375 8.125 -9.375 8.125 -8 6 C-6 5.33333333 -4 4.66666667 -2 4 C-0.57944932 1.99863756 -0.57944932 1.99863756 0 0 Z " fill="#D95FAB" transform="translate(740,406)"/>
<path d="M0 0 C0.99 0 1.98 0 3 0 C3.3403125 1.3921875 3.3403125 1.3921875 3.6875 2.8125 C5.23217522 6.56385411 6.55883593 7.09830406 10 9 C10 9.99 10 10.98 10 12 C8.02 12.33 6.04 12.66 4 13 C3.34 14.98 2.68 16.96 2 19 C0.68 19 -0.64 19 -2 19 C-2.20625 18.071875 -2.4125 17.14375 -2.625 16.1875 C-3.74446192 12.73995905 -3.74446192 12.73995905 -7.125 11.125 C-8.07375 10.75375 -9.0225 10.3825 -10 10 C-9.67 9.01 -9.34 8.02 -9 7 C-8.05125 6.71125 -7.1025 6.4225 -6.125 6.125 C-2.33537579 4.76073529 -1.88557867 3.4119995 0 0 Z " fill="#30AAE5" transform="translate(499,194)"/>
<path d="M0 0 C3 1 3 1 4.25 2.75 C5.21948043 5.6584413 5.01083609 7.11189688 4 10 C2.25 12.375 2.25 12.375 0 14 C-3.62995207 14.09307569 -4.96911721 13.02470623 -7.8125 10.75 C-10 8 -10 8 -10.5 5.375 C-10 3 -10 3 -8.9375 1.1875 C-5.96608707 -0.63368857 -3.40678991 -0.24334214 0 0 Z " fill="#58D5D9" transform="translate(707,229)"/>
<path d="M0 0 C-3.23843784 2.15895856 -5.81365904 2.87914982 -9.5625 3.875 C-20.6237096 6.33460141 -20.6237096 6.33460141 -29 13 C-21.41 13 -13.82 13 -6 13 C-6 13.33 -6 13.66 -6 14 C-17.55 14 -29.1 14 -41 14 C-39.49862807 10.99725613 -37.35399186 10.8263156 -34.2421875 9.6875 C-33.05882812 9.25179687 -31.87546875 8.81609375 -30.65625 8.3671875 C-30.03492188 8.14256836 -29.41359375 7.91794922 -28.7734375 7.68652344 C-26.90094283 7.00938159 -25.03246303 6.32117059 -23.1640625 5.6328125 C-6.85178336 -0.33423333 -6.85178336 -0.33423333 0 0 Z " fill="#21861F" transform="translate(445,746)"/>
<path d="M0 0 C0.99 0.33 1.98 0.66 3 1 C3.33 3.31 3.66 5.62 4 8 C2.88625 8.433125 1.7725 8.86625 0.625 9.3125 C-3.17512334 10.69911119 -3.17512334 10.69911119 -5 14 C-7.625 14.1875 -7.625 14.1875 -10 14 C-10 12.68 -10 11.36 -10 10 C-8.906875 9.649375 -7.81375 9.29875 -6.6875 8.9375 C-3.53564713 7.62316459 -2.37683541 6.46435287 -1.0625 3.3125 C-0.711875 2.219375 -0.36125 1.12625 0 0 Z " fill="#72D69D" transform="translate(379,294)"/>
<path d="M0 0 C0.33 0 0.66 0 1 0 C1.226875 0.9075 1.45375 1.815 1.6875 2.75 C3.2049319 6.50745042 4.5386399 7.9396666 8 10 C10.16666667 10.16666667 10.16666667 10.16666667 12 9 C14.30270475 6.69729525 14.96419239 5.52517824 15.1875 2.25 C15.125625 1.5075 15.06375 0.765 15 0 C16.32 1.32 17.64 2.64 19 4 C18.04270084 5.12588014 17.08412105 6.2506715 16.125 7.375 C15.59132813 8.00148437 15.05765625 8.62796875 14.5078125 9.2734375 C13.38567993 10.55836651 12.20628025 11.79371975 11 13 C7.875 13.125 7.875 13.125 5 13 C4.67 13.99 4.34 14.98 4 16 C0.66794616 10.84069083 -0.68172854 7.1532482 -1 1 C-0.67 0.67 -0.34 0.34 0 0 Z " fill="#44CAD8" transform="translate(696,232)"/>
<path d="M0 0 C0.66 0.33 1.32 0.66 2 1 C1.835 1.53625 1.67 2.0725 1.5 2.625 C0.90339788 5.45886009 0.9343632 8.1119806 1 11 C-1.97 10.01 -4.94 9.02 -8 8 C-8 6.68 -8 5.36 -8 4 C-6.71349294 3.30289269 -5.42059335 2.61757124 -4.125 1.9375 C-3.40570312 1.55464844 -2.68640625 1.17179688 -1.9453125 0.77734375 C-1.30335938 0.52082031 -0.66140625 0.26429688 0 0 Z " fill="#FBBF1C" transform="translate(546,193)"/>
<path d="M0 0 C1.67542976 0.28604898 3.34385343 0.61781233 5 1 C5.33 3.31 5.66 5.62 6 8 C5.67 7.34 5.34 6.68 5 6 C4.05125 6.825 3.1025 7.65 2.125 8.5 C-0.75 11 -0.75 11 -3 11 C-2.69217504 9.35328588 -2.37860766 7.70764424 -2.0625 6.0625 C-1.88847656 5.14597656 -1.71445312 4.22945312 -1.53515625 3.28515625 C-1 1 -1 1 0 0 Z " fill="#32B7E8" transform="translate(702,216)"/>
<path d="M0 0 C-0.66 2.31 -1.32 4.62 -2 7 C-4.875 7.125 -4.875 7.125 -8 7 C-8.66 6.34 -9.32 5.68 -10 5 C-9.9375 3 -9.9375 3 -9 1 C-5.6868424 -0.8804408 -3.58825658 -1.32898392 0 0 Z " fill="#31B3DE" transform="translate(695,232)"/>
<path d="M0 0 C1 1 1 1 1.125 3.5 C1 6 1 6 0 7 C-2.4375 7.1875 -2.4375 7.1875 -5 7 C-7 5 -7 5 -7.125 2.375 C-7.08375 1.59125 -7.0425 0.8075 -7 0 C-4.31633121 -1.3418344 -2.84719317 -0.73004953 0 0 Z " fill="#7FE2D2" transform="translate(707,232)"/>
<path d="M0 0 C-3.23843784 2.15895856 -5.81365904 2.87914982 -9.5625 3.875 C-14.94897495 5.34708011 -19.95553451 7.09855226 -25.01171875 9.4609375 C-25.66785156 9.63882813 -26.32398438 9.81671875 -27 10 C-27.99 9.34 -28.98 8.68 -30 8 C-26.13003209 6.65174155 -22.25330047 5.32407951 -18.375 4 C-17.28058594 3.6184375 -16.18617188 3.236875 -15.05859375 2.84375 C-13.99511719 2.4828125 -12.93164062 2.121875 -11.8359375 1.75 C-10.86188965 1.41484375 -9.8878418 1.0796875 -8.88427734 0.734375 C-5.81481042 -0.04715171 -3.15420354 -0.13091377 0 0 Z " fill="#3E8E39" transform="translate(445,746)"/>
<path d="M0 0 C0.33 0 0.66 0 1 0 C1.33 7.26 1.66 14.52 2 22 C1.34 22 0.68 22 0 22 C0 23.65 0 25.3 0 27 C-0.33 27 -0.66 27 -1 27 C-1.02905924 23.2500163 -1.04681874 19.50006163 -1.0625 15.75 C-1.07087891 14.68652344 -1.07925781 13.62304688 -1.08789062 12.52734375 C-1.09111328 11.50253906 -1.09433594 10.47773438 -1.09765625 9.421875 C-1.10289307 8.47924805 -1.10812988 7.53662109 -1.11352539 6.56542969 C-1.00968082 4.21876563 -0.66706529 2.24355522 0 0 Z " fill="#2FB1E1" transform="translate(423,270)"/>
<path d="M0 0 C-2.89514194 1.29322032 -5.79123484 2.58429741 -8.6875 3.875 C-9.50412109 4.23980469 -10.32074219 4.60460937 -11.16210938 4.98046875 C-15.08196222 6.72615221 -18.9969644 8.45096382 -23 10 C-23.33 9.01 -23.66 8.02 -24 7 C-20.56835801 5.63064072 -17.12888119 4.28217537 -13.6875 2.9375 C-12.71103516 2.54755859 -11.73457031 2.15761719 -10.72851562 1.75585938 C-9.79072266 1.39169922 -8.85292969 1.02753906 -7.88671875 0.65234375 C-6.59060669 0.14175415 -6.59060669 0.14175415 -5.26831055 -0.37915039 C-3 -1 -3 -1 0 0 Z " fill="#EFF5D5" transform="translate(601,513)"/>
<path d="M0 0 C0.33 0 0.66 0 1 0 C1.66 1.98 2.32 3.96 3 6 C4.65 6 6.3 6 8 6 C8 4.02 8 2.04 8 0 C8.99 0.33 9.98 0.66 11 1 C11.22223194 3.74086056 11.34781139 5.43963721 9.875 7.8125 C7.12844028 9.55198782 5.18153026 9.39769128 2 9 C0.125 7.8125 0.125 7.8125 -1 6 C-1.25 3.375 -1.25 3.375 -1 1 C-0.67 0.67 -0.34 0.34 0 0 Z " fill="#69DBD4" transform="translate(699,232)"/>
<path d="M0 0 C1.98 0 3.96 0 6 0 C5.64950425 3.24208567 5.43778819 4.61527704 2.9375 6.8125 C2.298125 7.204375 1.65875 7.59625 1 8 C0.34 7.34 -0.32 6.68 -1 6 C-0.625 2.875 -0.625 2.875 0 0 Z " fill="#FA7259" transform="translate(687,436)"/>
<path d="M0 0 C-3.48326424 2.32217616 -7.11024921 3.71673124 -11 5.1875 C-12.08667969 5.61579102 -12.08667969 5.61579102 -13.1953125 6.05273438 C-18.64407774 8.11864075 -18.64407774 8.11864075 -22 7 C-19.03 6.01 -16.06 5.02 -13 4 C-13 3.34 -13 2.68 -13 2 C-8.46298506 0.54815522 -4.81938524 -0.23509196 0 0 Z " fill="#E3E6E3" transform="translate(429,749)"/>
<path d="M0 0 C4.56736441 0.70062483 8.5699505 2.31270207 12.8125 4.0625 C13.50537109 4.34416016 14.19824219 4.62582031 14.91210938 4.91601562 C16.60967624 5.60674973 18.30506312 6.30283728 20 7 C19.67 7.99 19.34 8.98 19 10 C18.38253906 9.68546875 17.76507813 9.3709375 17.12890625 9.046875 C11.48676155 6.19574556 5.80239493 3.50876496 0 1 C0 0.67 0 0.34 0 0 Z " fill="#EEF4CA" transform="translate(338,492)"/>
<path d="M0 0 C3.63 0 7.26 0 11 0 C11 2.31 11 4.62 11 7 C10.34 6.34 9.68 5.68 9 5 C9 3.68 9 2.36 9 1 C6.69 1.66 4.38 2.32 2 3 C1.67 5.31 1.34 7.62 1 10 C0.67 10 0.34 10 0 10 C0 6.7 0 3.4 0 0 Z " fill="#A2BB0F" transform="translate(458,331)"/>
<path d="M0 0 C0.66 0 1.32 0 2 0 C2 1.65 2 3.3 2 5 C3.65 5 5.3 5 7 5 C7 5.33 7 5.66 7 6 C5.02 6 3.04 6 1 6 C0.67 6.66 0.34 7.32 0 8 C0 7.34 0 6.68 0 6 C-2.97 5.505 -2.97 5.505 -6 5 C-5.38125 4.731875 -4.7625 4.46375 -4.125 4.1875 C-1.7004767 3.04443152 -1.7004767 3.04443152 0 0 Z " fill="#76D5A3" transform="translate(376,304)"/>
<path d="M0 0 C0.66 0 1.32 0 2 0 C1.01252102 2.12687781 0.0558235 3.93204095 -1.4375 5.75 C-3.66439107 8.95672314 -4.71130152 12.31800435 -6 16 C-7.0255368 13.32738894 -7.08282493 12.2243612 -6.07421875 9.4921875 C-5.61660156 8.62851563 -5.15898437 7.76484375 -4.6875 6.875 C-4.23761719 6.00617188 -3.78773438 5.13734375 -3.32421875 4.2421875 C-2 2 -2 2 0 0 Z " fill="#3EC5F0" transform="translate(432,243)"/>
<path d="M0 0 C0.66 0.33 1.32 0.66 2 1 C1.814375 1.556875 1.62875 2.11375 1.4375 2.6875 C0.92448835 5.399133 1.3359276 7.34371039 2 10 C-0.97 9.505 -0.97 9.505 -4 9 C-3.34 8.67 -2.68 8.34 -2 8 C-1.62599214 5.67284 -1.29235267 3.33882138 -1 1 C-0.67 0.67 -0.34 0.34 0 0 Z " fill="#3BBFDA" transform="translate(695,231)"/>
<path d="M0 0 C1.65 0 3.3 0 5 0 C5 1.65 5 3.3 5 5 C3.35 4.67 1.7 4.34 0 4 C0 2.68 0 1.36 0 0 Z " fill="#D356A2" transform="translate(731,413)"/>
<path d="M0 0 C0.99 0.33 1.98 0.66 3 1 C3.33 2.65 3.66 4.3 4 6 C3.38125 5.814375 2.7625 5.62875 2.125 5.4375 C-0.04160178 4.76313824 -0.04160178 4.76313824 -2 6 C-1.125 1.125 -1.125 1.125 0 0 Z " fill="#FDCC3A" transform="translate(550,186)"/>
<path d="M0 0 C1.65 0.33 3.3 0.66 5 1 C4.67 2.32 4.34 3.64 4 5 C2.35 4.67 0.7 4.34 -1 4 C-0.67 2.68 -0.34 1.36 0 0 Z " fill="#1EA6D9" transform="translate(686,233)"/>
<path d="M0 0 C2 3 2 3 1.75 6.625 C1.5025 7.73875 1.255 8.8525 1 10 C0.01 10.495 0.01 10.495 -1 11 C-1.14285714 3.57142857 -1.14285714 3.57142857 0 0 Z " fill="#71A521" transform="translate(483,521)"/>
<path d="M0 0 C1.65 0.33 3.3 0.66 5 1 C5 1.99 5 2.98 5 4 C3.35 4 1.7 4 0 4 C0 2.68 0 1.36 0 0 Z " fill="#5DCD97" transform="translate(369,304)"/>
<path d="M0 0 C1.32 0.33 2.64 0.66 4 1 C4 1.99 4 2.98 4 4 C1.69 4 -0.62 4 -3 4 C-2.67 3.34 -2.34 2.68 -2 2 C-1.34 2 -0.68 2 0 2 C0 1.34 0 0.68 0 0 Z " fill="#D053A5" transform="translate(747,415)"/>
<path d="M0 0 C1.65 0 3.3 0 5 0 C5 1.32 5 2.64 5 4 C3.35 4 1.7 4 0 4 C0 2.68 0 1.36 0 0 Z " fill="#91E8D1" transform="translate(701,233)"/>
<path d="M0 0 C1.98 0 3.96 0 6 0 C5.6875 2.375 5.6875 2.375 5 5 C4.01 5.66 3.02 6.32 2 7 C2.33 5.35 2.66 3.7 3 2 C2.01 1.34 1.02 0.68 0 0 Z " fill="#F66752" transform="translate(687,436)"/>
<path d="M0 0 C0.8353125 0.37125 0.8353125 0.37125 1.6875 0.75 C1.06875 1.03875 0.45 1.3275 -0.1875 1.625 C-2.44575765 2.68720042 -2.44575765 2.68720042 -4.3125 4.75 C-5.3025 4.42 -6.2925 4.09 -7.3125 3.75 C-2.88173077 -0.31153846 -2.88173077 -0.31153846 0 0 Z " fill="#ABBF2F" transform="translate(554.3125,301.25)"/>
</svg>
