<?xml version="1.0" encoding="UTF-8"?>
<svg id="Layer_1" data-name="Layer 1" xmlns="http://www.w3.org/2000/svg" xmlns:xlink="http://www.w3.org/1999/xlink" viewBox="0 0 1200 450">
  <defs>
    <style>
      .cls-1 {
        fill: #0a0a0f;
      }

      .cls-2 {
        fill: #7c6af7;
      }

      .cls-3 {
        fill: url(#linear-gradient);
      }

      .cls-4 {
        isolation: isolate;
      }

      .cls-5 {
        fill: #e8e8f0;
      }

      .cls-6 {
        fill: #b8b8d0;
      }
    </style>
    <linearGradient id="linear-gradient" x1="0" y1="225" x2="1200" y2="225" gradientUnits="userSpaceOnUse">
      <stop offset="0" stop-color="#f0f7ec"/>
      <stop offset=".5" stop-color="#fff"/>
      <stop offset="1" stop-color="#f0f7ec"/>
    </linearGradient>
  </defs>
  <rect class="cls-3" width="1200" height="450"/>
  <g class="cls-4">
    <rect class="cls-1" width="1200" height="450"/>
    <g class="cls-4">
      <g class="cls-4">
        <path class="cls-5" d="M423.85,278.14v-61.6h20.86c4.69,0,8.56.81,11.62,2.42,3.05,1.61,5.31,3.83,6.78,6.64,1.47,2.82,2.2,6.04,2.2,9.68s-.73,6.86-2.2,9.68c-1.47,2.82-3.73,5.03-6.78,6.64-3.05,1.61-6.92,2.42-11.62,2.42h-11.53v24.11h-9.33ZM433.18,245.67h11.09c3.99,0,6.91-.94,8.76-2.82,1.85-1.88,2.77-4.4,2.77-7.57s-.92-5.62-2.77-7.52c-1.85-1.91-4.77-2.86-8.76-2.86h-11.09v20.77Z"/>
        <path class="cls-5" d="M496.8,279.2c-4.99,0-9.3-1.29-12.94-3.87-3.64-2.58-6.42-6.25-8.36-11s-2.9-10.41-2.9-16.98.97-12.23,2.9-16.98,4.72-8.42,8.36-11c3.64-2.58,7.95-3.87,12.94-3.87s9.37,1.29,12.98,3.87c3.61,2.58,6.38,6.25,8.32,11s2.9,10.41,2.9,16.98-.97,12.23-2.9,16.98-4.71,8.42-8.32,11c-3.61,2.58-7.94,3.87-12.98,3.87ZM496.8,270.4c4.4,0,7.95-1.98,10.65-5.94,2.7-3.96,4.05-9.67,4.05-17.12s-1.35-13.16-4.05-17.12c-2.7-3.96-6.25-5.94-10.65-5.94s-8.02,1.98-10.69,5.94c-2.67,3.96-4,9.67-4,17.12s1.33,13.16,4,17.12c2.67,3.96,6.23,5.94,10.69,5.94Z"/>
        <path class="cls-5" d="M549.77,279.2c-5.16,0-9.55-1.32-13.16-3.96-3.61-2.64-6.37-6.35-8.27-11.13-1.91-4.78-2.86-10.34-2.86-16.68s.95-11.98,2.86-16.76c1.91-4.78,4.68-8.51,8.32-11.18,3.64-2.67,8.01-4,13.11-4,6.63,0,11.91,1.8,15.84,5.41,3.93,3.61,6.22,8.49,6.86,14.65h-10.3c-.53-3.23-1.83-5.91-3.92-8.05-2.08-2.14-4.94-3.21-8.58-3.21-4.63,0-8.24,2.05-10.82,6.16-2.58,4.11-3.87,9.77-3.87,16.98s1.29,12.78,3.87,16.85c2.58,4.08,6.19,6.12,10.82,6.12,3.75,0,6.63-.98,8.62-2.95,1.99-1.96,3.29-4.56,3.87-7.79h10.3c-.94,6.04-3.31,10.81-7.13,14.3-3.81,3.49-9.01,5.24-15.58,5.24Z"/>
        <path class="cls-5" d="M582.69,278.14v-61.6h9.33v28.16l21.82-28.16h11.53l-24.11,30.53v.53l24.64,30.54h-11.79l-22.09-27.63v27.63h-9.33Z"/>
        <path class="cls-5" d="M635.92,278.14v-61.6h9.33v53.24h30.36v8.36h-39.69Z"/>
        <path class="cls-5" d="M688.64,278.14v-61.6h39.34v8.36h-30.01v17.95h27.37v8.27h-27.37v18.66h30.01v8.36h-39.34Z"/>
        <path class="cls-5" d="M756.13,278.14v-53.24h-16.54v-8.36h42.42v8.36h-16.54v53.24h-9.33Z"/>
      </g>
    </g>
  </g>
  <g class="cls-4">
    <g class="cls-4">
      <path class="cls-6" d="M229.5,334.8c-1.78,0-3.32-.34-4.63-1.01s-2.32-1.61-3.02-2.81-1.07-2.6-1.1-4.21h3.17c.02,1.44.51,2.68,1.46,3.73.95,1.04,2.32,1.57,4.12,1.57,1.66,0,2.93-.4,3.83-1.21.9-.8,1.35-1.77,1.35-2.9,0-.94-.22-1.72-.65-2.36s-1.13-1.2-2.11-1.69c-.97-.49-2.27-1-3.91-1.53-2.3-.7-3.98-1.64-5.04-2.84-1.06-1.2-1.58-2.69-1.58-4.46,0-1.2.31-2.28.94-3.24.62-.96,1.52-1.72,2.7-2.27,1.18-.55,2.6-.83,4.28-.83,1.58,0,2.97.29,4.16.88s2.11,1.41,2.77,2.47c.66,1.06.99,2.27.99,3.64h-3.17c0-.67-.18-1.33-.54-1.98-.36-.65-.9-1.19-1.62-1.62-.72-.43-1.63-.65-2.74-.65-1.32,0-2.42.32-3.31.95-.89.64-1.33,1.51-1.33,2.61,0,.84.2,1.55.59,2.12s1.05,1.1,1.96,1.57c.91.47,2.15.97,3.71,1.49,1.46.48,2.72,1.04,3.76,1.67s1.85,1.42,2.41,2.36c.56.94.85,2.1.85,3.49s-.35,2.58-1.04,3.64c-.7,1.06-1.67,1.89-2.92,2.5-1.25.61-2.7.92-4.36.92Z"/>
      <path class="cls-6" d="M241.24,334.37l7.88-25.2h3.49l7.85,25.2h-3.31l-1.84-6.26h-8.93l-1.84,6.26h-3.31ZM250.78,313.42l-3.64,12.17h7.42l-3.64-12.17h-.14Z"/>
      <path class="cls-6" d="M270.65,334.37l-8.03-25.2h3.24l6.59,21.28,6.59-21.28h3.28l-8.06,25.2h-3.6Z"/>
      <path class="cls-6" d="M286.35,334.37v-25.2h15.73v2.74h-12.71v8.39h11.63v2.74h-11.63v8.6h12.71v2.74h-15.73Z"/>
      <path class="cls-6" d="M328.14,334.37v-25.2h3.02v10.87h12.2v-10.87h3.02v25.2h-3.02v-11.59h-12.2v11.59h-3.02Z"/>
      <path class="cls-6" d="M357.34,334.37v-22.46h-6.77v-2.74h16.56v2.74h-6.77v22.46h-3.02Z"/>
      <path class="cls-6" d="M371.45,334.37v-25.2h3.24l5.76,11.99,5.76-11.99h3.24v25.2h-2.95v-19.37l-4.9,10.19h-2.3l-4.9-10.15v19.33h-2.95Z"/>
      <path class="cls-6" d="M394.38,334.37v-25.2h3.02v22.46h12.78v2.74h-15.8Z"/>
      <path class="cls-6" d="M445.5,334.8c-1.78,0-3.32-.34-4.63-1.01s-2.32-1.61-3.02-2.81-1.07-2.6-1.1-4.21h3.17c.02,1.44.51,2.68,1.46,3.73.95,1.04,2.32,1.57,4.12,1.57,1.66,0,2.93-.4,3.83-1.21.9-.8,1.35-1.77,1.35-2.9,0-.94-.22-1.72-.65-2.36s-1.13-1.2-2.11-1.69c-.97-.49-2.27-1-3.91-1.53-2.3-.7-3.98-1.64-5.04-2.84-1.06-1.2-1.58-2.69-1.58-4.46,0-1.2.31-2.28.94-3.24.62-.96,1.52-1.72,2.7-2.27,1.18-.55,2.6-.83,4.28-.83,1.58,0,2.97.29,4.16.88s2.11,1.41,2.77,2.47c.66,1.06.99,2.27.99,3.64h-3.17c0-.67-.18-1.33-.54-1.98-.36-.65-.9-1.19-1.62-1.62-.72-.43-1.63-.65-2.74-.65-1.32,0-2.42.32-3.31.95-.89.64-1.33,1.51-1.33,2.61,0,.84.2,1.55.59,2.12s1.05,1.1,1.96,1.57c.91.47,2.15.97,3.71,1.49,1.46.48,2.72,1.04,3.76,1.67s1.85,1.42,2.41,2.36c.56.94.85,2.1.85,3.49s-.35,2.58-1.04,3.64c-.7,1.06-1.67,1.89-2.92,2.5-1.25.61-2.7.92-4.36.92Z"/>
      <path class="cls-6" d="M459.61,334.37v-2.63h5.72v-19.94h-5.72v-2.63h14.47v2.63h-5.72v19.94h5.72v2.63h-14.47Z"/>
      <path class="cls-6" d="M486.93,334.37v-22.46h-6.77v-2.74h16.56v2.74h-6.77v22.46h-3.02Z"/>
      <path class="cls-6" d="M502.34,334.37v-25.2h15.73v2.74h-12.71v8.39h11.63v2.74h-11.63v8.6h12.71v2.74h-15.73Z"/>
      <path class="cls-6" d="M531.9,334.8c-1.78,0-3.32-.34-4.63-1.01s-2.32-1.61-3.02-2.81-1.07-2.6-1.1-4.21h3.17c.02,1.44.51,2.68,1.46,3.73.95,1.04,2.32,1.57,4.12,1.57,1.66,0,2.93-.4,3.83-1.21.9-.8,1.35-1.77,1.35-2.9,0-.94-.22-1.72-.65-2.36s-1.13-1.2-2.11-1.69c-.97-.49-2.27-1-3.91-1.53-2.3-.7-3.98-1.64-5.04-2.84-1.06-1.2-1.58-2.69-1.58-4.46,0-1.2.31-2.28.94-3.24.62-.96,1.52-1.72,2.7-2.27,1.18-.55,2.6-.83,4.28-.83,1.58,0,2.97.29,4.16.88s2.11,1.41,2.77,2.47c.66,1.06.99,2.27.99,3.64h-3.17c0-.67-.18-1.33-.54-1.98-.36-.65-.9-1.19-1.62-1.62-.72-.43-1.63-.65-2.74-.65-1.32,0-2.42.32-3.31.95-.89.64-1.33,1.51-1.33,2.61,0,.84.2,1.55.59,2.12s1.05,1.1,1.96,1.57c.91.47,2.15.97,3.71,1.49,1.46.48,2.72,1.04,3.76,1.67s1.85,1.42,2.41,2.36c.56.94.85,2.1.85,3.49s-.35,2.58-1.04,3.64c-.7,1.06-1.67,1.89-2.92,2.5-1.25.61-2.7.92-4.36.92Z"/>
      <path class="cls-6" d="M573.33,334.37v-22.46h-6.77v-2.74h16.56v2.74h-6.77v22.46h-3.02Z"/>
      <path class="cls-6" d="M596.44,334.8c-2.04,0-3.79-.54-5.26-1.62-1.46-1.08-2.59-2.6-3.37-4.55-.78-1.96-1.17-4.24-1.17-6.86s.39-4.9,1.17-6.86c.78-1.96,1.9-3.47,3.37-4.55,1.46-1.08,3.22-1.62,5.26-1.62s3.79.54,5.26,1.62,2.59,2.6,3.37,4.55c.78,1.96,1.17,4.24,1.17,6.86s-.39,4.9-1.17,6.86c-.78,1.96-1.9,3.47-3.37,4.55-1.46,1.08-3.22,1.62-5.26,1.62ZM596.44,331.96c1.99,0,3.61-.89,4.84-2.66,1.24-1.78,1.85-4.28,1.85-7.52s-.62-5.75-1.85-7.52c-1.24-1.78-2.85-2.66-4.84-2.66s-3.64.89-4.86,2.66c-1.22,1.78-1.84,4.28-1.84,7.52s.61,5.75,1.84,7.52c1.22,1.78,2.84,2.66,4.86,2.66Z"/>
      <path class="cls-6" d="M638.13,334.37v-9.9l-8.17-15.3h3.42l6.26,12.24,6.26-12.24h3.42l-8.17,15.3v9.9h-3.02Z"/>
      <path class="cls-6" d="M661.24,334.8c-2.04,0-3.79-.54-5.26-1.62-1.46-1.08-2.59-2.6-3.37-4.55-.78-1.96-1.17-4.24-1.17-6.86s.39-4.9,1.17-6.86c.78-1.96,1.9-3.47,3.37-4.55,1.46-1.08,3.22-1.62,5.26-1.62s3.79.54,5.26,1.62,2.59,2.6,3.37,4.55c.78,1.96,1.17,4.24,1.17,6.86s-.39,4.9-1.17,6.86c-.78,1.96-1.9,3.47-3.37,4.55-1.46,1.08-3.22,1.62-5.26,1.62ZM661.24,331.96c1.99,0,3.61-.89,4.84-2.66,1.24-1.78,1.85-4.28,1.85-7.52s-.62-5.75-1.85-7.52c-1.24-1.78-2.85-2.66-4.84-2.66s-3.64.89-4.86,2.66c-1.22,1.78-1.84,4.28-1.84,7.52s.61,5.75,1.84,7.52c1.22,1.78,2.84,2.66,4.86,2.66Z"/>
      <path class="cls-6" d="M682.81,334.8c-1.68,0-3.17-.35-4.48-1.04-1.31-.7-2.34-1.76-3.1-3.19s-1.13-3.22-1.13-5.38v-16.02h3.02v16.13c0,2.16.53,3.83,1.58,5,1.06,1.18,2.45,1.76,4.18,1.76s3.11-.59,4.14-1.76c1.03-1.17,1.55-2.84,1.55-5v-16.13h3.02v16.02c0,2.16-.38,3.95-1.15,5.38-.77,1.43-1.81,2.49-3.13,3.19-1.32.7-2.82,1.04-4.5,1.04Z"/>
      <path class="cls-6" d="M696.59,334.37v-25.2h7.74c1.94,0,3.55.32,4.81.97,1.26.65,2.2,1.53,2.83,2.65s.94,2.38.94,3.8c0,1.66-.43,3.11-1.28,4.37-.85,1.26-2.15,2.14-3.91,2.65l5.47,10.76h-3.6l-5.08-10.33h-4.9v10.33h-3.02ZM699.62,321.27h4.61c1.92,0,3.33-.44,4.23-1.31.9-.88,1.35-2,1.35-3.37,0-1.44-.44-2.58-1.31-3.42-.88-.84-2.31-1.26-4.3-1.26h-4.57v9.36Z"/>
      <path class="cls-6" d="M738.53,334.37v-25.2h3.02v10.87h12.2v-10.87h3.02v25.2h-3.02v-11.59h-12.2v11.59h-3.02Z"/>
      <path class="cls-6" d="M769.24,334.8c-2.04,0-3.79-.54-5.26-1.62-1.46-1.08-2.59-2.6-3.37-4.55-.78-1.96-1.17-4.24-1.17-6.86s.39-4.9,1.17-6.86c.78-1.96,1.9-3.47,3.37-4.55s3.22-1.62,5.26-1.62,3.79.54,5.26,1.62c1.46,1.08,2.58,2.6,3.37,4.55s1.17,4.24,1.17,6.86-.39,4.9-1.17,6.86c-.78,1.96-1.9,3.47-3.37,4.55-1.46,1.08-3.22,1.62-5.26,1.62ZM769.24,331.96c1.99,0,3.61-.89,4.84-2.66,1.24-1.78,1.85-4.28,1.85-7.52s-.62-5.75-1.85-7.52c-1.24-1.78-2.85-2.66-4.84-2.66s-3.64.89-4.86,2.66c-1.22,1.78-1.84,4.28-1.84,7.52s.61,5.75,1.84,7.52c1.22,1.78,2.84,2.66,4.86,2.66Z"/>
      <path class="cls-6" d="M781.84,334.37v-25.2h3.24l5.76,11.99,5.76-11.99h3.24v25.2h-2.95v-19.37l-4.9,10.19h-2.3l-4.9-10.15v19.33h-2.95Z"/>
      <path class="cls-6" d="M804.74,334.37v-25.2h15.73v2.74h-12.71v8.39h11.63v2.74h-11.63v8.6h12.71v2.74h-15.73Z"/>
      <path class="cls-6" d="M855.89,334.8c-1.78,0-3.32-.34-4.63-1.01-1.31-.67-2.32-1.61-3.02-2.81-.71-1.2-1.08-2.6-1.1-4.21h3.17c.02,1.44.51,2.68,1.46,3.73s2.32,1.57,4.12,1.57c1.66,0,2.93-.4,3.83-1.21.9-.8,1.35-1.77,1.35-2.9,0-.94-.22-1.72-.65-2.36s-1.13-1.2-2.11-1.69c-.97-.49-2.27-1-3.91-1.53-2.3-.7-3.98-1.64-5.04-2.84-1.06-1.2-1.58-2.69-1.58-4.46,0-1.2.31-2.28.94-3.24s1.52-1.72,2.7-2.27,2.6-.83,4.28-.83c1.58,0,2.97.29,4.16.88,1.19.59,2.11,1.41,2.77,2.47.66,1.06.99,2.27.99,3.64h-3.17c0-.67-.18-1.33-.54-1.98-.36-.65-.9-1.19-1.62-1.62s-1.63-.65-2.74-.65c-1.32,0-2.42.32-3.31.95-.89.64-1.33,1.51-1.33,2.61,0,.84.2,1.55.59,2.12.4.58,1.05,1.1,1.96,1.57.91.47,2.15.97,3.71,1.49,1.46.48,2.72,1.04,3.76,1.67s1.85,1.42,2.41,2.36c.56.94.85,2.1.85,3.49s-.35,2.58-1.04,3.64c-.7,1.06-1.67,1.89-2.92,2.5-1.25.61-2.7.92-4.36.92Z"/>
      <path class="cls-6" d="M877.42,334.8c-2.04,0-3.8-.54-5.27-1.62-1.48-1.08-2.6-2.59-3.38-4.54-.78-1.94-1.17-4.24-1.17-6.88s.39-4.9,1.17-6.86c.78-1.96,1.91-3.47,3.38-4.55s3.23-1.62,5.27-1.62c2.59,0,4.68.71,6.26,2.14,1.58,1.43,2.51,3.33,2.77,5.71h-3.35c-.24-1.42-.84-2.6-1.8-3.56-.96-.96-2.26-1.44-3.89-1.44-2.09,0-3.73.91-4.93,2.72-1.2,1.81-1.8,4.3-1.8,7.47s.6,5.69,1.8,7.49c1.2,1.8,2.84,2.7,4.93,2.7,1.7,0,3.02-.46,3.94-1.37.92-.91,1.51-2.09,1.75-3.53h3.35c-.38,2.4-1.34,4.29-2.86,5.67-1.52,1.38-3.58,2.07-6.17,2.07Z"/>
      <path class="cls-6" d="M890.99,334.37v-25.2h7.74c1.94,0,3.55.32,4.81.97,1.26.65,2.2,1.53,2.83,2.65.62,1.12.94,2.38.94,3.8,0,1.66-.43,3.11-1.28,4.37-.85,1.26-2.16,2.14-3.91,2.65l5.47,10.76h-3.6l-5.08-10.33h-4.9v10.33h-3.02ZM894.02,321.27h4.61c1.92,0,3.33-.44,4.23-1.31.9-.88,1.35-2,1.35-3.37,0-1.44-.44-2.58-1.31-3.42-.88-.84-2.31-1.26-4.3-1.26h-4.57v9.36Z"/>
      <path class="cls-6" d="M912.74,334.37v-25.2h15.73v2.74h-12.71v8.39h11.63v2.74h-11.63v8.6h12.71v2.74h-15.73Z"/>
      <path class="cls-6" d="M934.33,334.37v-25.2h15.73v2.74h-12.71v8.39h11.63v2.74h-11.63v8.6h12.71v2.74h-15.73Z"/>
      <path class="cls-6" d="M954.89,334.37v-25.2h3.1l11.45,19.91v-19.91h2.99v25.2h-3.13l-11.45-19.91v19.91h-2.95Z"/>
    </g>
  </g>
  <path class="cls-2" d="M664.07,45.59h-144.11c-3.06,0-5.54,2.48-5.54,5.54v114.57c0,7.37,4.71,13.79,11.73,15.96l57.71,17.89c2.67.83,5.42,1.24,8.16,1.24s5.49-.42,8.16-1.24l57.72-17.89c7.01-2.17,11.72-8.59,11.72-15.96V51.14c0-3.06-2.48-5.54-5.54-5.54h-.01ZM525.5,73.31c0-3.06,2.48-5.54,5.54-5.54s5.54,2.48,5.54,5.54v5.54c0,3.06-2.48,5.54-5.54,5.54s-5.54-2.48-5.54-5.54v-5.54ZM525.5,106.56c0-3.06,2.48-5.54,5.54-5.54s5.54,2.48,5.54,5.54v5.54c0,3.06-2.48,5.54-5.54,5.54s-5.54-2.48-5.54-5.54v-5.54ZM525.5,145.36v-5.54c0-3.06,2.48-5.54,5.54-5.54s5.54,2.48,5.54,5.54v5.54c0,3.06-2.48,5.54-5.54,5.54s-5.54-2.48-5.54-5.54ZM549.89,171.48c-.9,2.91-4.01,4.57-6.93,3.65l-6.78-2.1c-2.92-.91-4.56-4.01-3.65-6.93.9-2.93,4.01-4.57,6.93-3.65l6.78,2.1c2.93.9,4.56,4.01,3.65,6.93ZM583.78,181.98c-.9,2.91-4.01,4.57-6.93,3.65l-6.78-2.1c-2.92-.91-4.56-4.01-3.65-6.93s4.02-4.57,6.93-3.65l6.78,2.1c2.92.9,4.56,4.01,3.65,6.93ZM613.97,183.53l-6.78,2.1c-2.93.91-6.04-.74-6.93-3.65-.91-2.93.73-6.03,3.65-6.93l6.78-2.1c2.92-.91,6.03.73,6.93,3.65.91,2.93-.73,6.03-3.65,6.93ZM647.84,173.03l-6.78,2.1c-2.93.91-6.03-.74-6.93-3.65-.91-2.92.73-6.03,3.65-6.93l6.78-2.1c2.92-.91,6.02.73,6.93,3.65s-.73,6.03-3.65,6.93ZM658.52,145.36c0,3.06-2.48,5.54-5.54,5.54s-5.54-2.48-5.54-5.54v-5.54c0-3.06,2.48-5.54,5.54-5.54s5.54,2.48,5.54,5.54v5.54ZM658.52,112.1c0,3.06-2.48,5.54-5.54,5.54s-5.54-2.48-5.54-5.54v-5.54c0-3.06,2.48-5.54,5.54-5.54s5.54,2.48,5.54,5.54v5.54ZM658.52,78.85c0,3.06-2.48,5.54-5.54,5.54s-5.54-2.48-5.54-5.54v-5.54c0-3.06,2.48-5.54,5.54-5.54s5.54,2.48,5.54,5.54v5.54Z"/>
</svg>