<?xml version="1.0" encoding="UTF-8"?>
<svg id="Layer_1" data-name="Layer 1" xmlns="http://www.w3.org/2000/svg" xmlns:xlink="http://www.w3.org/1999/xlink" viewBox="0 0 1200 450">
  <defs>
    <style>
      .cls-1 {
        fill: #0a0a0f;
      }

      .cls-2 {
        fill: #7c6af7;
      }

      .cls-3 {
        fill: url(#linear-gradient);
      }

      .cls-4, .cls-5 {
        isolation: isolate;
      }

      .cls-5 {
        fill: #e8e8f0;
        font-family: DMMono-Medium, 'DM Mono';
        font-size: 88px;
        font-weight: 500;
      }

      .cls-6 {
        fill: #b8b8d0;
        font-family: DMMono-Regular, 'DM Mono';
        font-size: 36px;
      }
    </style>
    <linearGradient id="linear-gradient" x1="0" y1="225" x2="1200" y2="225" gradientTransform="translate(0 450) scale(1 -1)" gradientUnits="userSpaceOnUse">
      <stop offset="0" stop-color="#f0f7ec"/>
      <stop offset=".5" stop-color="#fff"/>
      <stop offset="1" stop-color="#f0f7ec"/>
    </linearGradient>
  </defs>
  <rect class="cls-3" width="1200" height="450"/>
  <g class="cls-4">
    <rect class="cls-1" width="1200" height="450"/>
    <text class="cls-5" transform="translate(417.6 278.14)"><tspan x="0" y="0">POCKLET</tspan></text>
  </g>
  <text class="cls-6" transform="translate(218.45 334.37)"><tspan x="0" y="0">SAVE HTML SITES TO YOUR HOME SCREEN</tspan></text>
  <path class="cls-2" d="M664.07,45.59h-144.11c-3.06,0-5.54,2.48-5.54,5.54v114.57c0,7.37,4.71,13.79,11.73,15.96l57.71,17.89c2.67.83,5.42,1.24,8.16,1.24s5.49-.42,8.16-1.24l57.72-17.89c7.01-2.17,11.72-8.59,11.72-15.96V51.14c0-3.06-2.48-5.54-5.54-5.54ZM525.5,73.31c0-3.06,2.48-5.54,5.54-5.54s5.54,2.48,5.54,5.54v5.54c0,3.06-2.48,5.54-5.54,5.54s-5.54-2.48-5.54-5.54v-5.54ZM525.5,106.56c0-3.06,2.48-5.54,5.54-5.54s5.54,2.48,5.54,5.54v5.54c0,3.06-2.48,5.54-5.54,5.54s-5.54-2.48-5.54-5.54v-5.54ZM525.5,145.36v-5.54c0-3.06,2.48-5.54,5.54-5.54s5.54,2.48,5.54,5.54v5.54c0,3.06-2.48,5.54-5.54,5.54s-5.54-2.48-5.54-5.54ZM549.89,171.48c-.9,2.91-4.01,4.57-6.93,3.65l-6.78-2.1c-2.92-.91-4.56-4.01-3.65-6.93.9-2.93,4.01-4.57,6.93-3.65l6.78,2.1c2.93.9,4.56,4.01,3.65,6.93ZM583.78,181.98c-.9,2.91-4.01,4.57-6.93,3.65l-6.78-2.1c-2.92-.91-4.56-4.01-3.65-6.93s4.02-4.57,6.93-3.65l6.78,2.1c2.92.9,4.56,4.01,3.65,6.93ZM613.97,183.53l-6.78,2.1c-2.93.91-6.04-.74-6.93-3.65-.91-2.93.73-6.03,3.65-6.93l6.78-2.1c2.92-.91,6.03.73,6.93,3.65.91,2.93-.73,6.03-3.65,6.93ZM647.84,173.03l-6.78,2.1c-2.93.91-6.03-.74-6.93-3.65-.91-2.92.73-6.03,3.65-6.93l6.78-2.1c2.92-.91,6.02.73,6.93,3.65.91,2.92-.73,6.03-3.65,6.93ZM658.52,145.36c0,3.06-2.48,5.54-5.54,5.54s-5.54-2.48-5.54-5.54v-5.54c0-3.06,2.48-5.54,5.54-5.54s5.54,2.48,5.54,5.54v5.54ZM658.52,112.1c0,3.06-2.48,5.54-5.54,5.54s-5.54-2.48-5.54-5.54v-5.54c0-3.06,2.48-5.54,5.54-5.54s5.54,2.48,5.54,5.54v5.54ZM658.52,78.85c0,3.06-2.48,5.54-5.54,5.54s-5.54-2.48-5.54-5.54v-5.54c0-3.06,2.48-5.54,5.54-5.54s5.54,2.48,5.54,5.54v5.54Z"/>
</svg>