<svg xmlns="http://www.w3.org/2000/svg" viewBox="0 0 975 610" role="img" aria-label="Map of the United States with 16 states filled in and 50 places pinned"><title>Where I have been</title><style>path{stroke:#fff;stroke-width:1;stroke-linejoin:round}.off{fill:#e6e6ea}.on{fill:#9ec6f0}.pin{stroke:#fff;stroke-width:1.5}.pin--place{fill:#0a4f9e}.pin--ski{fill:#6d3bd1}.pin--peak{fill:#0a7c4a}</style><path class="off" d="M648 492.4L651.9 491L652.9 491.8L648 492.4ZM641.6 384L689.2 379.7L702.5 427L707.8 436.5L707.3 438.8L709.6 439.9L706.7 443.2L707.1 446L705.9 450.1L708.6 457.1L708.3 464.8L710.8 468.8L660.7 474L660.3 477L665.1 480.9L664.6 484.7L666.3 486.4L663.7 490.1L655.2 492L659.1 490.2L655.9 487.8L655.4 483.1L653.4 481.7L652.4 482.7L651.6 490.2L649.1 489L646.5 489.5L642.2 455L643.7 386.2L641.6 384Z"><title>Alabama</title></path><path class="off" d="M104.2 551.6L105.1 550.5L104.2 551.6ZM99.1 569.9L103.4 565.2L102.9 567.5L105 567.5L104.7 569.1L102.5 568.9L100.9 570.5L99.1 569.9ZM95.1 582L96.3 581.4L96.9 582.3L95.1 582ZM93.3 575.4L95.7 573.1L97.1 574.4L96.9 571.9L99.5 571.6L99 570.7L101.3 571.6L103.1 570.6L103.9 572.3L103.2 573.5L104.5 573.3L103.8 574.9L102 574.3L102.6 575.3L100.2 576.9L101.5 577.1L99.7 578.4L99.5 576.8L98 579.4L96 580.4L97.5 577.1L95.4 579.6L93.3 575.4ZM93.1 582.8L95 581.9L93.1 582.8ZM88.9 587.6L89.6 586.9L89.6 588.1L88.9 587.6ZM71.8 593.7L71.9 592.8L71.8 593.7ZM71 591.7L71.7 591.2L71.6 592.9L71 591.7ZM68.2 593.5L69.2 591.4L70.3 591.7L68.2 593.5ZM65.8 590.1L68.2 590.1L68 590.9L67.2 590.1L67.1 591.8L65.9 591.6L65.8 590.1ZM67.5 564.2L69.3 562.5L67.5 564.2ZM60.9 591.2L62.3 591.5L60.9 591.2ZM58.3 592.4L59.2 592.2L58.7 593.3L58.3 592.4ZM66.1 523.9L67.3 524.3L66.1 523.9ZM56 595.9L58.1 596.7L56 595.9ZM44.6 597L45.9 596.9L44.6 597ZM42.7 595.5L43.9 596L43.1 596.7L42.7 595.5ZM40.6 595.9L41.8 595.6L42.5 596.7L40.7 596.8L40.6 595.9ZM44.2 547.5L46.2 547.9L49.5 546.7L50.9 548.5L51 551.2L48.4 552L44.2 547.5ZM31.3 600.8L33.8 600.4L35.9 598.5L36.7 599.1L35.4 597.5L36.1 596.7L39.8 597.5L38 598.9L40.1 598.2L36.6 600.9L32.2 601.5L31.3 600.8ZM50.7 504.5L63.9 499.5L65.7 499.7L65.2 503.9L71.4 505.1L72.5 503.4L74.3 503.7L72.7 502.2L71.4 502.5L71.7 501.2L69.7 498.2L70.7 497.6L72.6 501.9L73.4 501.7L71.9 499.6L73.2 497.6L66.5 495.6L66.2 492.3L59.4 484.4L61 483.3L61.5 480.8L67.2 481.3L69.5 480L71.7 475L75.3 471.4L78.2 471.3L82.9 467.9L84.2 468.7L86.7 468.1L89.3 465.1L92.5 466.1L91.5 468.6L94 466.3L96.2 469.2L98.7 468L101.4 468.7L100.9 470.4L102.8 470.8L102.4 471.8L108.9 470.8L113.9 472.8L118.9 472.6L121.6 473.8L126 471.7L132.9 474.4L147.3 547.1L151.4 547.2L152.2 545.7L154.5 545.1L154.6 547.3L162.3 552.4L163.6 554.8L166.5 551.9L166.5 548.3L169.4 545.9L171.7 547.2L172.6 549.3L180.8 553.8L191.6 565.6L200.1 566.6L202.9 572.6L201.4 577.9L198.4 575L199.1 573.9L197.6 570.6L196.8 570.2L198.1 571.9L198.1 575.1L194.4 573.7L194.1 570.7L193.9 574L192.8 573.7L192.2 568.8L191.1 571.8L189.2 570.5L189.6 567.2L190.4 567.2L185.7 563.9L183.2 563.5L181.4 559.6L183.6 560L181 559.1L178.4 555.8L176.2 556.8L170.3 549.6L174.7 557.7L172.7 556.5L170.8 557.2L169.2 554.1L168.7 554.7L167.1 553.4L165.7 554.3L169 555.3L170.3 557.4L168 559.3L160 554.5L153 552.1L153.9 551.3L153.4 547.9L151 551.3L146.3 550.7L146.8 549.7L140.6 550L135.3 551.6L134 553.4L135.8 551.2L132.3 550.3L132.3 548.5L130.8 549.7L128 548.9L128.8 547.8L127.5 549.7L125.3 550.6L125.4 549L128.4 547.8L127.9 546.9L126.9 547.7L127.4 546.7L124.8 547L126.7 545.9L125.3 546.4L124.8 544L123.6 545.6L123.1 544.2L122.8 545.7L119.2 547.1L119.8 544.9L119 545L118.7 549.7L119.6 548.7L119.7 551.6L121.1 552.9L120.3 553.9L119.4 554L118.9 552.4L118.7 554L116 553.9L114.9 555L114.7 552.9L114.6 554.5L113.5 554.3L113.7 556.8L112.5 555.7L112.9 556.6L111.3 558.7L110.5 557.4L108.8 560.4L107.2 560L105.8 561L104.8 560.3L105.2 559L108.7 555.9L106.7 557.2L105.2 556.2L106.9 552.5L106.7 548.5L110.5 545.8L112.1 547.1L112.9 546.2L115.5 546.8L111.6 544.8L113.9 542.3L113.2 542L111.9 544.1L109.4 543.8L106.3 546.2L101.7 553L102.3 553.8L101.4 555.4L99.8 555.5L100.5 556.9L96.2 559.5L96 562.3L97.7 562L99.6 563.5L96.4 566.5L95.8 569.3L92 570.7L91.2 572.6L89.9 572.1L89.3 573.9L88 573.7L88.1 574.7L85.8 575.8L86.7 575.5L86.6 576.7L85.6 578.3L82.8 579.9L82 579.1L79.7 582.1L77.7 581.9L77 582.9L78.5 583.9L76.7 585.8L76.1 584.8L76 585.9L72.2 586.5L71 588.6L71.7 586.8L70.6 586.4L67.3 589.1L65.9 588.5L64.1 589.7L62.9 589.5L63.7 587.5L62.6 587.5L60.3 590.3L60.6 591.3L58.2 591.4L57.8 589.3L57.7 592L54.8 591L55.6 591.9L53.9 592.8L55.2 594.1L54 593.3L46.7 594.8L46.5 593.5L48.6 591.6L53.4 590.8L54.2 592.2L54.5 590.3L56.5 590.1L62 585.2L66.5 584.6L66.3 586.9L66.5 585.7L68.7 586.9L67.5 585L68.6 583L75.2 578.8L76.4 579.3L77.9 575.9L80.9 573.4L82.4 566L84.4 563.1L79.6 565L78.1 563.5L78.4 561.8L77.2 562.8L76.4 566.6L73.3 562L72.5 563.1L71 560.7L64.7 564.1L64.2 558.3L65.8 556.7L63.8 551.1L60.7 553.1L56.6 552.7L56.5 551.2L53.4 547.4L54.2 546.8L52.6 546.7L54.4 545.2L53.9 543.1L54.7 542.9L53.8 541.4L52.7 541.9L51.8 539.8L52.5 538.6L51.1 538.2L52.6 537.2L51.8 535.9L53.4 535.9L53.7 533.6L59.6 526L64.3 527.9L67.5 524.9L71.5 525.2L73 523.2L72.7 519.5L71 517.8L72.8 517.3L73.7 515.7L72.5 514L71.8 515.1L69 515.5L66.5 518L65.6 515.4L65.9 516.7L64.1 515.8L59.1 516L55.2 514.1L53.9 509.4L55.9 508.7L52.4 506.9L50.7 504.5ZM24.9 603L26.8 600.9L28.9 600.7L29.3 599.1L31.9 599.3L28 602.2L24.9 603ZM28.5 573.3L29.6 573.6L28.5 573.3ZM20.4 602.1L21.7 602.9L20.4 602.1ZM26.8 568.3L28 568.2L26.8 568.3ZM16 603L17.2 602.5L16 603ZM34.4 517.8L35.3 516.1L37.7 518.5L39.4 517.9L42 521.2L44.8 522.4L40.8 524.5L37.5 519.7L34.4 519.3L34.4 517.8ZM7 603L8.6 602.9L7 603ZM23.4 539.9L24.2 539.3L26.2 542.3L23.4 539.9ZM0 602.3L5 604.1L0 602.3ZM-6.2 601.2L-1 601.3L0 599.9L0.7 600.9L-0.2 602.3L-2 602.5L-6.2 601.2ZM-10.2 599.4L-9.2 600L-9.8 600.8L-10.2 599.4ZM-11 601.2L-9.6 601L-11 601.2ZM-15 601.4L-13.1 599.3L-11.1 600.8L-11.5 601.8L-15 601.4ZM-18.1 599.6L-14.6 599.3L-16.2 600.6L-18.1 599.6ZM-20.1 597.5L-18.3 598.8L-19.5 600L-20.1 597.5ZM-30.2 592.5L-28.9 593.1L-30 593.6L-30.2 592.5ZM-35.2 593.3L-33.1 596.2L-35.2 593.3ZM-40.8 588.6L-38.1 588.3L-40.5 589.3L-40.8 588.6ZM-55.8 576.6L-54.3 576.5L-54.4 577.8L-55.8 576.6ZM-57.6 570.9L-54.7 571.9L-53.9 573.8L-56.4 573.1L-57.6 570.9ZM197.4 577.4L198.7 577.2L197.4 577.4ZM196.5 577L196.2 575L197.6 576.8L196.5 577ZM194.7 574.9L195.8 575L195.8 576.5L194.7 574.9ZM187.6 570L188.6 570.7L187.6 570ZM187.1 569.1L187.4 568.2L188.9 568.2L188.2 569.7L187.1 569.1ZM186.2 576.9L186.2 576.1L188.2 576L187 577.9L186.2 576.9ZM184.9 573.1L185 569.8L186.8 569.5L192.7 574.5L191.4 574.2L191.2 575L193.4 575.3L193.6 576.5L194.4 575.9L195.7 580.1L193.4 580.2L193.9 579.4L192.5 579L192.1 577.4L191.8 578.9L189.6 577.5L193 580.4L192 581.3L189.2 577.9L188.2 578.3L189.4 576.3L185.8 574.3L186.1 572.3L184.9 573.1ZM182.7 574.2L183.7 574L182.7 574.2ZM180.3 567.2L181.7 566.1L182.4 566.9L181.9 564.6L185.4 564.3L188.7 566.7L186.3 568.6L183.9 568.5L183.4 573.2L180.3 567.2ZM174.6 555.9L176.1 557.5L178.2 556.9L180.2 559.2L180.8 560.6L178.7 558.9L181.4 562.6L179.6 565.9L174.6 555.9ZM173.9 564.8L174.6 562.9L177.2 563.4L180.8 572.7L175.5 568.5L175.5 565.3L173.9 564.8ZM173.5 565.9L173.6 565L174.8 565.7L174.9 567.4L174 567.8L173.5 565.9ZM169.1 561.4L169.1 558.6L169.9 559.2L171.5 557.8L175.3 558.7L175 560.1L177.1 562.7L173.7 562.2L174.1 563.7L173 564.7L169.1 561.4ZM120.8 555.1L123.6 550L124.3 550.9L122.9 554.1L120.8 555.1ZM120.4 551.4L121.6 548.6L121.2 552.1L120.4 551.4Z"><title>Alaska</title></path><path class="on" d="M145.1 407L148.8 406.9L150.3 405.1L150.2 400.8L147.4 400.1L147 398.6L148.3 394.9L147.5 393.9L148 391.7L149.9 391.5L152.4 389.1L153.9 380.5L156.8 377L160.1 376.1L162.8 373.6L158.9 369.3L158.5 363.2L156.2 359.1L156.8 356.2L157.1 354L158.7 352.8L158.2 345.1L159 337.8L160.1 336.5L159.5 331.4L163.1 330.6L166.6 331.5L168.4 334.8L170 334.9L172.6 331.5L176 313.3L264.6 328L246.8 456.3L208.2 450.5L142.3 411.7L142.9 409L145.1 407Z"><title>Arizona</title></path><path class="on" d="M277.1 237.2L361.4 246.5L395.3 249L393.9 271.9L389.7 340.7L372.5 339.4L315.3 334.3L264.6 328L277.1 237.2Z"><title>Colorado</title></path><path class="on" d="M814.6 594.5L815.5 593.1L814.6 594.5ZM812.7 596L813.8 595.6L812.7 596ZM807.4 599L811.5 597.2L807.4 599ZM793.7 604.2L794.8 602L800.5 597.7L805.1 600.1L802 601.7L799.7 601.7L796.4 604.1L793.7 604.2ZM789.6 605.4L792.1 604.4L791.8 605.5L789.6 605.4ZM786.4 605.5L787.6 604.7L786.4 605.5ZM777.4 558.3L779.8 562.4L783.3 563.1L781.7 563.9L779.5 562.7L777.4 558.3ZM770.3 606.2L771.8 606.2L770.3 606.2ZM720.4 495.2L722.4 494.1L722.1 495L720.4 495.2ZM710.8 468.8L714.2 475L765.8 471.5L767.3 476L769.7 475.6L768.7 466L770 464.9L780.1 466.1L787 486.3L794.9 499.6L804.6 511L806.1 513.6L805 517.2L806.6 521.9L822.1 549L823.8 574.5L822.7 572.9L821.8 573.7L820.8 578.1L821.8 581.3L820.7 583L820.9 583.7L822.4 582.7L824 577.8L823.8 580.3L821.6 586.6L816.4 593.2L819.1 589.4L819.7 586.1L813.6 588L812.2 587.4L806.9 589.7L805.5 588.9L804.7 587.7L805.3 585L800.6 577.8L793.1 574.2L791.9 575.4L786.5 564.2L783 561.3L781.4 562.6L779.2 558.4L781 558.5L780.4 552L778.5 553.2L779.5 555.9L777.3 557.8L776.5 555.5L765.2 540.9L766.1 541.7L767 541L770.6 535L770.6 531.9L769 531.7L769.7 533.8L767.9 533.5L767.6 530.8L764.7 529.8L764.2 531.7L766.3 532.3L767.4 534.3L766.8 536.8L765.2 537.3L765.1 539.2L761.9 533.4L760.7 526.1L762.7 529.5L761.9 527.3L763.6 520.7L763.6 517.1L761.3 511.5L761.9 510.2L758.8 506.7L758.9 505.1L755 504.9L754 506.1L752.9 503.1L751.3 502.8L749.9 500L746.1 498.3L745.3 494.9L742.8 494.1L739.3 489.9L732.2 486.7L727.4 487.4L725.8 489.7L726.4 492.2L722.7 492.3L716.3 497.4L715.7 496L714.3 497.8L711.8 498L714.2 499.9L720.1 496L713.7 500.8L710 499.1L707.4 499.8L705.7 496.1L706.2 495L707.6 499.1L708.1 496.6L705.7 493.6L695.8 488.4L688.8 486.2L678.4 486.1L663.7 490.1L666.3 486.4L664.6 484.7L665.1 480.9L660.3 477L660.7 474L710.8 468.8Z"><title>Florida</title></path><path class="off" d="M689.2 379.7L712.7 376.8L734.9 373.7L731.6 379L731.7 381.5L738.4 385.4L741.1 385.4L748.3 396.2L752.6 398.1L756 402.3L761.9 405.8L761.6 407.7L763.6 408.7L765.7 411.8L771.3 414.4L774 422.7L778.7 425.8L781.4 433.4L786.1 434.6L786.9 434.7L786.8 436L785.2 436.5L784.7 438.9L783.3 438.7L784 439.8L782.6 442.3L781.4 442.3L782.7 442.9L782.9 444.6L782.4 446.2L780.7 447L782.4 447.1L781 450.8L781.3 454.4L778.3 460.2L779.9 459.9L780.1 466.1L770 464.9L768.7 466L769.7 475.6L767.3 476L765.8 471.5L714.2 475L710.8 468.8L708.3 464.8L708.6 457.1L705.9 450.1L707.1 446L706.7 443.2L709.6 439.9L707.3 438.8L707.8 436.5L702.5 427L689.2 379.7Z"><title>Georgia</title></path><path class="off" d="M640.3 229.8L644.9 231.4L651.9 227.6L685.6 223.9L685.8 225.4L692.5 284.3L691.3 285.7L692.5 286.9L692.2 289.1L693.7 289.3L693.5 291.6L690.7 292L687.5 294.5L685.1 293.5L682.9 294.1L683.6 298.2L680.6 301L678.7 305.1L677.1 305.1L676 311L674.1 312.8L669.8 310.7L668.2 307.9L668.6 308.8L666.3 309.9L666 314.3L664.6 314.6L664.4 316.1L659.7 313.6L656.7 315.7L655.3 318.7L650.6 315.6L648.3 316.5L646.7 315L646.7 318.3L645.6 318.5L645.3 316.8L642.7 317.7L641.3 316.7L641.5 319.4L639.4 319.7L638 317.4L639.5 317.5L638.5 317L639.3 315.7L638.7 314.3L640.5 311.8L639.4 310.3L640.2 308.2L641.5 308.6L646.8 296.6L645.7 294.8L646.2 292.6L644.9 291.9L643.5 287.9L645 283.6L640.3 229.8Z"><title>Indiana</title></path><path class="off" d="M393.9 271.9L453.9 274.6L509.9 275.2L513.1 278.1L516.5 277.7L517.3 281.4L516.1 281L513.5 285.8L517.3 289.1L517.2 291.2L518.5 293.2L522.6 294.4L522.8 343.8L458.9 343.6L389.7 340.7L393.9 271.9Z"><title>Kansas</title></path><path class="off" d="M939.8 114.8L940.6 114.4L939.8 114.8ZM938 116.1L937.9 114.5L939.8 115.7L939.2 116.8L938 116.1ZM936.3 112.2L936.5 111.3L937.3 112.6L936.3 112.2ZM932.2 116L933.3 116.5L932.2 116ZM933.5 124.7L933.8 123.9L934.2 125.3L933.5 124.7ZM931.4 119.2L932.7 117.1L934.3 119.4L933 120.8L931.4 119.2ZM930.1 116.3L930.3 113.2L931 113.3L931 116.2L930.1 116.3ZM910.2 150.1L907.8 149.2L907.5 147.2L903.6 143.5L890.9 102.4L891.8 101.2L894.8 103.1L894.3 99.3L895.2 98.3L897.3 98.8L895.2 96.3L896.9 92.3L899.1 90.1L898.2 88.9L900 86.1L898.4 83.6L898.8 80.5L897.7 79.7L898.1 76.3L899.9 73.8L899.1 67.5L905.9 47.6L908.8 47.5L910 51.5L912.5 52.3L916.6 48.5L919.6 47.6L919.7 45.9L922.6 45.8L929.7 49.7L937.9 74.4L937.3 75.4L938.5 76.5L938.7 79.9L944.6 79.9L945.7 81.9L944.5 82.6L946.6 85.5L946.1 87L949.5 89.7L949.8 88.1L952 88.1L956.3 92.6L957.1 94.8L955 99.4L953.8 100.3L952.8 98.6L951.5 99.6L952.4 100.5L949.6 103.1L951.1 104.1L950.2 105.6L948.5 104L947.5 105.2L946.8 104.3L946.3 107.5L944 108.4L943.8 110.3L942.5 109.2L941.4 109.7L942.2 113L938.9 113.7L937.4 111.9L938.7 110.4L938.1 109.7L935.4 111.3L937 114L936.3 116.8L937.3 119.8L936.5 120.3L935.7 117.6L934.5 117L934.5 114.7L932.8 113.6L931.9 114.3L931 110.1L930.3 112L928.5 112.6L929.7 113.9L928.9 118.7L929.3 120.5L930.2 120.3L930.2 122.9L928.6 123.2L927.1 126.5L927 124.7L925.8 125.7L925.7 124.4L924.8 124.8L924.4 127.8L923.5 127L919.7 132.2L919 130.7L918.1 130.9L917.3 132.8L915.1 134.1L914.8 137.5L912.8 138.3L912.9 142.3L911.2 143.3L910.2 150.1Z"><title>Maine</title></path><path class="off" d="M927.7 186.8L930.2 186.4L931.5 184.3L933 186L930.7 187.6L927.7 186.8ZM918.3 188.3L921.3 184.4L923.8 186L924.2 185.1L924.6 186.7L919.6 189.2L918.3 188.3ZM871 167.6L884.1 164.8L902.9 160.7L906.2 156L909.5 154.8L911.2 158.5L914.3 158.4L913.8 160.4L910.6 162.2L911.2 162.6L909.5 165.8L910.4 166.9L909.6 167.1L910 168.6L911.8 167.4L915 169L917 171.2L916.4 173.3L919.4 174.4L921.7 177.7L925.5 177.8L928.8 175.1L926.2 170L923.6 170L926.7 169.7L931 176.8L930.6 179.8L929.7 177.6L924.7 179.9L916.1 187.6L920 183.3L919.6 179.8L917.9 179.4L917.7 181.7L915.4 182.8L915.4 185.3L912.8 186.4L911.6 182.9L910.5 182.8L909.8 182.1L907.7 181L905.5 176L898.8 178L883.1 181.4L882.3 182.5L882.2 181.6L871.2 184L871 167.6Z"><title>Massachusetts</title></path><path class="off" d="M479.5 70.7L510.8 70.8L510.7 62.2L513.7 62.5L515.6 64.1L518.6 76.5L524.3 77.3L524.9 78.4L530.7 78.8L531.5 81.3L536.5 80.5L538.2 78.6L543.7 78.5L549.1 80.2L548 82L551.1 82.2L553.4 87.3L554.9 86.6L554.9 84.2L558.1 84L559.7 86.7L563.4 87.3L564.6 89.6L565.9 89.3L565.8 90.7L570.6 89.6L576 85.7L578.1 88.9L587.6 88L591.8 90.6L597.6 89.5L577.1 101.1L568.2 111.3L558.9 119.4L560.2 121.1L559 120.2L557.5 121L557.4 122.4L555.9 122.3L556.4 135.6L550.1 139.9L547.6 144L547.5 147.3L549.3 147.4L551.3 149.9L549.7 153.6L549.3 165.9L553.6 169.9L556.9 170.1L559.2 172.7L563.9 174.9L564.9 177.8L569.8 181.6L572.3 182.2L575.6 187.1L576.3 193.3L490.6 195.2L490.8 154.3L490.2 153L487.1 151.7L484.4 147.3L488.8 142.5L489.1 139.9L488.6 130.9L485.5 123.3L484.9 102.5L480.5 89.4L481.4 77.7L479.5 70.7Z"><title>Minnesota</title></path><path class="off" d="M849.2 245.8L849.7 244.4L850.8 241.4L854.8 238.7L854.8 236.9L860.6 230.8L855.4 226.5L853.7 226.4L852.9 223.6L850.7 223.4L849.9 220.8L851.5 216.1L849.6 213.8L855 204L870.1 209L869.2 216.4L868.9 217.2L866.9 218.3L866.6 221.4L868 222.5L871.4 222.4L871.5 221.5L873.2 237.3L871.2 244.6L867.1 250.9L864.4 258.6L862.6 259L862.9 253.8L860.3 253.1L858.6 254.3L850.4 249.5L849.4 246.3L849.2 245.8Z"><title>New Jersey</title></path><path class="off" d="M864.3 329.1L865.5 329.3L866.8 331.4L864.3 329.1ZM863.3 349.7L863.6 348.4L870.9 343.2L870.3 335.7L868.6 332.1L870.7 335.7L871.3 344.1L863.3 349.7ZM755.5 334L794.2 328.7L858.8 315.9L862 322.8L868.4 331.7L864 327.6L859.7 318.9L856.8 316.9L855.9 317.5L858.4 318.9L862.3 326.4L859.3 323L858.5 322.9L858.9 324.2L860 324.7L857.9 324.6L854.4 322.8L857.3 325.6L855.3 326.7L853.3 325.7L854.8 327.4L850.1 326.4L853.3 327.6L849.9 330.6L846.8 330.3L845.5 325.1L845 328.3L847.4 332.7L858 329.2L859 329.8L859.9 336.6L860.2 329.5L861.9 328.7L864.9 331.9L865.1 337.3L863 337.9L859.7 344.3L853.4 344.7L850.9 342L853.1 340.5L850.1 342.1L851.6 344.7L843 343.4L844.4 345L853.4 345.8L854.2 347.1L852.7 351.9L849.6 355L845.9 353.5L846.2 354.7L850.5 355.8L854.8 352.9L855 351.4L856.9 353.2L858 353.1L857.1 351.8L858.7 352.1L859.2 353.5L857.1 355.8L855.9 360.3L853.7 358.3L854.1 359.9L853.1 360.2L856.1 360.9L862.3 349.7L862.9 350L857.9 357.4L856.1 362.4L855.6 361.2L853.1 360.6L846.8 362.6L838 370.5L834.5 376.7L833.4 384.1L829.2 383.5L822.8 386.1L798.1 368.4L777.6 371.5L777.5 368.8L774.1 365.4L772.4 367.1L772 364.7L747.2 367L740.7 371.4L734.9 373.7L712.7 376.8L712.6 371.4L717.3 369.2L717 366.7L719.2 363.8L726.3 361.7L731.6 356.5L734.6 355.9L735.7 351.7L737.2 352.1L737.8 350.2L740.1 348.3L740.8 350.5L741.8 350.7L746.1 345.9L750.7 345.5L752.4 341.1L754.2 339.5L755.7 339.8L755.5 334Z"><title>North Carolina</title></path><path class="on" d="M376.9 65.7L431.2 69.3L479.5 70.7L481.4 77.7L480.5 89.4L484.9 102.5L485.5 123.3L488.6 130.9L489.1 139.9L432.2 138.3L371.1 134.3L376.9 65.7Z"><title>North Dakota</title></path><path class="off" d="M372.5 339.4L389.7 340.7L458.9 343.6L522.8 343.8L523 355.3L526.8 380.5L526.4 420.7L522.2 419.6L521 418.1L519.6 418.5L517.3 415.7L512.4 413.5L511.4 415.4L506.5 415.4L506.2 414.2L500.9 416.3L499.2 415.2L496.1 416.1L491.6 419.8L490.1 417.8L486.2 416L487.1 415.2L485.4 414.7L483.8 416.6L481.5 415.6L481.1 413.8L479.4 413.7L477.5 418.8L476.1 418.5L475.4 414.4L471.3 416.6L470.7 414.6L468.2 414.4L468.3 413.5L466.5 412.7L463.1 415.8L460.9 414.6L461.7 412.5L459 412.1L458.5 408.7L457.6 409.6L454 408.5L451.7 410.6L448.7 408.2L446.6 409.1L442.5 406.8L438.7 406.8L438.4 404L435.3 401.1L434.9 402.9L431.6 401.9L431.2 402.8L429.4 402.6L425.9 398.5L423.9 398.3L425.8 353.9L371.6 350.8L372.5 339.4Z"><title>Oklahoma</title></path><path class="off" d="M756.1 209L767.5 200.3L768.6 206.4L840.9 192.1L843.2 194.8L844.5 194.3L846.3 195.3L847.5 199.9L849.7 202.4L853.9 202.5L855 204L849.6 213.8L851.5 216.1L849.9 220.8L850.7 223.4L852.9 223.6L853.7 226.4L855.4 226.5L860.6 230.8L854.8 236.9L854.8 238.7L850.8 241.4L846.5 241.9L844.9 244.6L782.3 256.9L764.5 259.9L761.1 239.2L756.1 209Z"><title>Pennsylvania</title></path><path class="on" d="M369.1 155.7L371.1 134.3L432.2 138.3L489.1 139.9L488.8 142.5L484.4 147.3L487.1 151.7L490.2 153L490.8 154.3L490.6 195.2L488.2 195.2L489.5 197.9L488.8 201.5L490 201.5L490.8 203.9L487.5 211.9L490.6 218.3L488 217.9L486.2 215.6L486.6 214.7L479.3 211.8L477.9 210.1L467.8 209.4L464.3 211.7L456.8 206.2L403.8 203.9L365.3 201L369.1 155.7Z"><title>South Dakota</title></path><path class="on" d="M371.6 350.8L425.8 353.9L423.9 398.3L425.9 398.5L429.4 402.6L431.2 402.8L431.6 401.9L434.9 402.9L435.3 401.1L438.4 404L438.7 406.8L442.5 406.8L446.6 409.1L448.7 408.2L451.7 410.6L454 408.5L457.6 409.6L458.5 408.7L459 412.1L461.7 412.5L460.9 414.6L463.1 415.8L466.5 412.7L468.3 413.5L468.2 414.4L470.7 414.6L471.3 416.6L475.4 414.4L476.1 418.5L477.5 418.8L479.4 413.7L481.1 413.8L481.5 415.6L483.8 416.6L485.4 414.7L487.1 415.2L486.2 416L490.1 417.8L491.6 419.8L496.1 416.1L499.2 415.2L500.9 416.3L506.2 414.2L506.5 415.4L511.4 415.4L512.4 413.5L517.3 415.7L519.6 418.5L521 418.1L522.2 419.6L526.4 420.7L528.8 422.8L532.1 421.6L534.8 422.5L535 434.7L535.5 457.9L539.8 463L539.6 467L541.8 469.1L542.7 473.5L544 474.4L544.4 476.5L545.4 476.2L546.1 479.9L545.2 480.5L546 481.8L545.5 484.5L542.1 491L543 493.3L541.7 495.7L542.7 496.6L543.1 502.1L538.9 507.5L540.6 510.4L534.8 511.5L522.2 518.2L524.2 515.5L527.7 514.4L526.7 513.3L522.1 514.3L523.8 510.6L523.7 509.2L522.5 508.6L520.2 511.2L518.4 510.5L517.4 513.8L519.6 515.1L519.9 519.4L515.9 522.5L514.7 522.2L514.6 523.9L521.5 518.4L523.1 518.8L510.3 529.5L492 539.2L477.8 551.1L471.8 561.9L470 570.2L474.2 592.2L471.8 581.9L470.1 581.5L471.3 581L469.5 574L470.4 563.6L476.2 551L482.2 544.8L489.2 541.4L489 539.7L484.3 542L483.8 539.9L482.5 539.9L482 544L479.3 546.3L477.2 544.8L473.6 547L475.2 547.7L477.4 546.5L477.4 548.1L474.1 553L472.8 551.8L468 551.5L467.5 552.3L470.2 552.6L470.4 554.8L472.7 555.8L469.4 564.3L467.4 565.3L466.7 564.9L467.7 564.5L467.3 563.3L465 566L469.2 565.7L467.9 575.9L468.5 580.3L471.8 588L471.5 591.7L474.3 592.7L474.4 595.1L471.7 595.1L469.7 596.1L469.7 597.6L468.2 597.4L464.1 593.5L451.8 592.1L447.4 588.6L443.2 588.2L440.1 585.1L434.9 584.3L431.4 574.1L427.9 569.9L428.2 564.8L426.3 563.3L427.6 559.5L426.7 559.2L427.1 557.7L419.9 552.1L419 548L412 540.8L411.3 535.8L408.3 532.1L405.1 521.7L398.1 513.5L394.2 511.5L394.2 509.3L393.6 510.6L391.5 506.3L388.9 505.3L385.8 505.8L377.8 504.7L373.4 502.6L372.4 504.9L370.4 504.4L366.4 505.5L362 513.6L362 516.1L359.4 517.5L356.8 521.6L353.5 521.4L350.7 519.8L348.3 517L337.2 510.9L335.1 507.8L331.3 505.3L327.7 497.8L328.1 492L325.2 486.9L324.4 481.9L319.1 476.9L315.8 475.4L306.2 462.7L301.7 459.9L299 453.5L296.3 452.1L294.3 449.3L295.1 447L362.9 453.3L370.9 350.7L371.6 350.8Z"><title>Texas</title></path><path class="on" d="M369.1 155.7L365.3 201L361.4 246.5L277.1 237.2L243.5 232.2L247.2 209.6L256 153.9L257.8 142L320.8 150.9L369.1 155.7Z"><title>Wyoming</title></path><path class="off" d="M871.2 184L882.2 181.6L882.3 182.5L883.1 181.4L898.8 178L902.2 191.1L901.7 193.5L888.5 198.7L885 199.4L884.7 198.4L881.9 202.6L881 202.4L874.1 208.3L872.3 206L875.7 202.6L874.1 201L871.2 184Z"><title>Connecticut</title></path><path class="off" d="M502 261.9L530.6 261.8L570.9 259.6L574.6 264.1L576.5 264.7L575.2 270.5L578.1 279.5L589.7 289.9L590.2 294.4L592.7 298.5L594.9 296.1L601 298.4L599.4 301.4L600 304.2L597.6 309.3L597.6 313.2L602.6 317.5L605.6 318.5L605.2 320.3L607.1 319.7L613.3 324.3L613.5 327.8L615.4 331L613.8 333.4L616.7 338.9L618.6 340L617.9 338.2L618.8 338.2L620.1 340.1L621.2 339.9L620.7 344L621.8 344.7L620.4 346.1L621.2 347.2L620.2 349.5L617.4 348.6L616.9 351.3L616.3 352.2L615.6 351.5L615.6 349.8L614.4 349.7L614.7 351.5L615.4 354.2L613.6 355.9L615.1 356.7L612.2 357.3L614.2 360.1L611.9 363.1L600.2 364L605.2 357.3L605.4 355.4L603.6 352.2L523 355.3L522.8 343.8L522.6 294.4L518.5 293.2L517.2 291.2L517.3 289.1L513.5 285.8L516.1 281L517.3 281.4L516.5 277.7L513.1 278.1L509.9 275.2L508.2 274.5L507.1 270L504.7 268.1L503.3 264.5L503.6 262.4L502.1 263.2L502 261.9Z"><title>Missouri</title></path><path class="off" d="M733.2 294.8L737.9 293.5L738 290.5L739.9 289.3L738.6 285.4L741.4 279.5L744 282.7L745 280.9L746 281.3L744.6 277.8L745.7 277.3L745.2 275.5L746.4 273.1L748.1 273L748.1 271.4L749.8 269.4L751.7 270.6L753.7 269.4L758.8 263L758.9 256.6L759.8 256.2L759.5 252.5L760.9 246.6L760.5 243.2L758.9 241L761.1 239.2L764.5 259.9L782.3 256.9L784.1 268.5L787.1 265.8L789.7 261.4L792.3 261.6L794.2 256.7L797 258.6L800.4 258.3L800.4 256.6L801.8 255.2L803.3 255.4L804.5 253.4L807.7 255L810.8 254.4L810.6 256.4L812.3 257.3L813.9 260.3L812.9 264.9L802.6 259.1L802.9 266L800.3 271.2L797.4 273.6L796.6 276.6L794 275L790.3 285.9L787.3 285.4L785.9 283.4L783.8 282.9L782.6 290.6L776 305.1L777.5 306.3L775.9 308.1L776.6 309.3L773.8 311.7L773 310.5L768.8 313.7L767 312.7L766.7 315.4L761.3 318.1L758.5 316.2L755.4 319.7L753.4 320.1L748.2 316.7L746.8 314.7L747.9 313.7L747.1 313.2L744.4 313.1L740.9 311.1L736.4 305.6L736.9 304.4L733.2 300.7L734.1 298.3L733.2 294.8Z"><title>West Virginia</title></path><path class="off" d="M576.5 264.7L577.3 261.9L576.5 260.9L577.4 259.4L581.2 257.8L581.5 254.5L583.6 251.8L583.7 247.9L580.7 244.7L581.6 240.8L591.3 237.7L593.2 236.1L593.5 232.7L595.5 231L595.5 223.8L591.6 221.6L591 219.4L587 215.4L634.2 212.4L634 216.8L640.3 229.8L645 283.6L643.5 287.9L644.9 291.9L646.2 292.6L645.7 294.8L646.8 296.6L641.5 308.6L640.2 308.2L639.4 310.3L640.5 311.8L638.7 314.3L639.3 315.7L638.5 317L639.5 317.5L638 317.4L639.4 319.7L637.3 323.1L639 327.3L632.2 329.8L631.7 332.2L633.6 335.1L633.1 336.9L623.1 334.2L620.6 337.5L621.2 339.9L620.1 340.1L618.8 338.2L617.9 338.2L618.6 340L616.7 338.9L613.8 333.4L615.4 331L613.5 327.8L613.3 324.3L607.1 319.7L605.2 320.3L605.6 318.5L602.6 317.5L597.6 313.2L597.6 309.3L600 304.2L599.4 301.4L601 298.4L594.9 296.1L592.7 298.5L590.2 294.4L589.7 289.9L578.1 279.5L575.2 270.5L576.5 264.7Z"><title>Illinois</title></path><path class="on" d="M264.6 328L315.3 334.3L372.5 339.4L371.6 350.8L370.9 350.7L362.9 453.3L295.1 447L294.3 449.3L296.3 452.1L264.2 448.2L262.9 458.4L246.8 456.3L264.6 328Z"><title>New Mexico</title></path><path class="off" d="M523 355.3L603.6 352.2L605.4 355.4L605.2 357.3L600.2 364L611.9 363.1L613.7 365.2L611.5 365.7L612.7 367.3L608.4 369.4L609 371.2L610.1 370.8L608.4 372.9L609.2 374.5L607 373.8L606.9 377.1L606.6 375.7L604.8 376.8L604.7 377.7L606.6 377.6L605.1 379.7L607.1 383.2L605.2 383.8L604.6 385.9L603.1 385.7L602.8 386.7L604 388.7L600.9 390.5L599.8 389.5L600.5 392.4L599.4 393L599.3 391.4L598.4 393L600.4 394.3L598.9 395.3L598.8 394L598.1 394.5L599.1 397.5L598.6 400.4L597.3 402.4L595.3 401.6L595.8 402.9L594.1 403.9L593.9 405.3L592.8 404.5L592.3 405.2L594.5 405.8L594.2 406.9L592 407L593.6 408.2L593.4 409.4L591.5 409.7L591.4 411L591 410.1L589.7 410.8L591.2 411.9L590.2 413.3L591.8 415.1L588.9 415.5L588.9 416.6L591.1 417.7L588.7 417L587.4 417.8L589.3 419.6L587.6 420.4L588.5 421.8L587.6 423.2L588.9 421.8L589.6 422.4L588.2 423.7L588.9 424.5L590.4 422.8L590.9 423.3L589.5 425.1L590.4 427.7L591.4 426.9L590.7 429.8L588.6 430.7L590.1 431.7L589.4 433.1L535 434.7L534.8 422.5L532.1 421.6L528.8 422.8L526.4 420.7L526.8 380.5L523 355.3Z"><title>Arkansas</title></path><path class="on" d="M77.2 374.3L81.1 376.9L81.3 379.5L78.9 378.3L79 376.1L77.2 374.3ZM74.7 384.2L78.3 390L76.8 390.1L75.8 388.7L74.7 384.2ZM65.2 358.4L66.2 359.3L65.2 358.4ZM58.3 374.3L60.7 376.1L58.6 375.5L58.3 374.3ZM56.6 355L60.5 357.4L63.6 357.8L59.5 358.6L56.9 357.4L56.6 355ZM50.3 355.2L54.1 355.4L54.9 357.8L51.9 358.1L50.3 355.2ZM46.8 353.4L48.6 353.1L49.4 354.4L46.8 353.4ZM32.6 160L100.5 179.2L83.3 245.5L156.8 356.2L156.2 359.1L158.5 363.2L158.9 369.3L162.8 373.6L160.1 376.1L156.8 377L153.9 380.5L152.4 389.1L149.9 391.5L148 391.7L147.5 393.9L148.3 394.9L147 398.6L147.4 400.1L150.2 400.8L150.3 405.1L148.8 406.9L145.1 407L99.5 401.7L99.7 399.5L98.9 397.9L97.9 398.1L98.7 387.7L96.5 382.3L87.9 371L86.4 369.8L84.7 370.8L82.1 369.3L83 367.2L81.7 362.5L76.4 361.8L71 358.1L69.3 354.1L65 349.3L59.3 347.9L54.9 345.2L48.8 344.3L48.5 342.4L46.5 340.5L47.9 338.2L48.6 334.9L47.9 333.2L49.8 328.1L46.4 325.7L46.9 320.1L45.3 319.3L43.4 314.7L41.6 313.3L39.7 305L34.8 296.1L35.1 289.9L38.1 289L39.7 285.9L39.2 282.7L38.3 281.4L35.1 281L31.4 274.3L32.5 270.7L31.6 266.5L33.3 260.8L35.3 260.7L34.7 265.7L39.3 270.3L38.6 265L36.4 261.7L37.3 259L35.8 257.2L39.2 256.3L38.9 254.7L37.6 253.4L35.7 253.7L35.7 256.7L34.4 257.6L35.2 259L34.2 258.4L34.2 259.9L33.2 259.9L28.5 253.7L26.2 253.5L28.3 250.3L28.5 247.8L27.2 246.7L27.1 243.1L24.4 239.5L20.1 229.8L21.6 226.9L21.4 219.4L23.6 215.7L24 209.2L21.6 201.9L18.5 197.2L18.9 193.1L27.7 181.7L27.7 178.9L31.3 172.9L31.6 165.8L30.4 164.4L32.6 160Z"><title>California</title></path><path class="off" d="M849.2 245.8L849.4 246.3L849.2 245.8ZM844.9 244.6L846.5 241.9L850.8 241.4L849.7 244.4L848.5 246.7L849.4 247.4L849.3 249.3L852.8 252.5L856.8 260.7L859.5 262.9L861.3 262.7L863.7 270.3L852.6 272.5L844.9 244.6Z"><title>Delaware</title></path><path class="off" d="M825.9 267L827 265.3L829.7 267.2L827.9 269.9L825.9 267Z"><title>District of Columbia</title></path><path class="off" d="M305.4 584.5L310.2 579.2L308.6 574L309.7 572.5L322.2 578.3L326.3 582L326.1 584.5L327.9 584.4L328.4 586.6L332.1 589.1L331.9 590.3L328.6 593.3L325.3 594.9L321.8 595.2L317.3 598.1L313.8 603.1L309.3 600.5L308.4 598.5L309.1 593.7L305.4 584.5ZM291.6 557.9L292.4 556L293.9 555.4L296.4 558.5L299.6 557.2L301.6 557.7L306.5 560.7L306.8 562.4L305.4 563.9L298.5 565.6L297.1 564.8L296.7 561.1L293.1 560.2L291.6 557.9ZM291.6 566.7L294.3 565L295 565.6L294.8 567L291.6 566.7ZM283.9 558.3L287.4 558L289.3 560.4L285.9 562.1L283.9 558.3ZM278.6 553.8L279.6 551.2L291.4 552.6L287.8 555L278.6 553.8ZM258.1 543L261.3 542.9L264.7 540L267.4 544.2L267.3 545.8L268.7 546.8L269.9 545.8L269.5 547L271.4 549.4L267.7 550.2L266.3 549.2L261.5 549.3L258.1 543ZM226.1 532.6L227.3 530.2L231 528.2L234.3 528.1L236.6 530.2L235.8 534.3L233.3 536.3L230 535.8L226.1 532.6ZM216.3 536.6L220 533.2L219.8 535.6L218.1 536.2L217.1 538.2L216.3 536.6Z"><title>Hawaii</title></path><path class="off" d="M490.6 195.2L576.3 193.3L576.5 196.3L579.2 198.7L577.4 201.6L579.9 210.5L585.6 212.4L587 215.4L591 219.4L591.6 221.6L595.5 223.8L595.5 231L593.5 232.7L593.2 236.1L591.3 237.7L581.6 240.8L580.7 244.7L583.7 247.9L583.6 251.8L581.5 254.5L581.2 257.8L577.4 259.4L576.5 260.9L577.3 261.9L576.5 264.7L574.6 264.1L570.9 259.6L530.6 261.8L502 261.9L499.9 258.5L501.2 255.1L500 248.8L500.7 248.2L499.5 248.1L499.2 245.8L500.1 245.2L498.9 244.7L499.3 241.9L496.4 239.9L496.9 234L495.3 231.7L495.9 230.2L494.2 229.6L492.3 225.8L492.6 224.2L491.1 221.5L491.7 219.3L490.6 218.3L487.5 211.9L490.8 203.9L490 201.5L488.8 201.5L489.5 197.9L488.2 195.2L490.6 195.2Z"><title>Iowa</title></path><path class="off" d="M621.2 339.9L620.6 337.5L623.1 334.2L633.1 336.9L633.6 335.1L631.7 332.2L632.2 329.8L639 327.3L637.3 323.1L639.4 319.7L641.5 319.4L641.3 316.7L642.7 317.7L645.3 316.8L645.6 318.5L646.7 318.3L646.7 315L648.3 316.5L650.6 315.6L655.3 318.7L656.7 315.7L659.7 313.6L664.4 316.1L664.6 314.6L666 314.3L666.3 309.9L668.6 308.8L668.2 307.9L669.8 310.7L674.1 312.8L676 311L677.1 305.1L678.7 305.1L680.6 301L683.6 298.2L682.9 294.1L685.1 293.5L687.5 294.5L690.7 292L693.5 291.6L693.7 289.3L692.2 289.1L692.5 286.9L691.3 285.7L692.5 284.3L693.7 283.2L696.4 284.6L698.5 283.2L701.7 285.5L703.9 289.8L710.2 290.2L713.9 292.7L716.2 290.6L720.6 292.4L727 287.9L728.4 291.7L730.5 292L733.2 294.8L734.1 298.3L733.2 300.7L736.9 304.4L736.4 305.6L740.9 311.1L744.4 313.1L747.1 313.2L741.2 320.4L735.2 324.6L735.4 326.3L733 328.2L733.1 330.3L729.8 331.5L729 334.2L719.8 338.7L644.8 346.1L640.8 345.4L641.4 349.5L616.9 351.3L617.4 348.6L620.2 349.5L621.2 347.2L620.4 346.1L621.8 344.7L620.7 344L621.2 339.9ZM615.6 351.5L614.7 351.5L614.4 349.7L615.6 349.8L615.6 351.5Z"><title>Kentucky</title></path><path class="off" d="M849.9 285L848.9 285.2L848.6 283.4L849.7 283.4L849.9 285ZM847.3 281.5L847.7 279.6L849 282.2L847.3 281.5ZM782.3 256.9L844.9 244.6L852.6 272.5L863.7 270.3L862.5 280.5L856.1 282.7L855.5 283.8L853.4 283.8L851.6 285.3L851.6 282.7L852.5 281.9L851.2 281.8L851.9 280.3L849.9 281.2L849.6 279.5L851.2 278.7L849.7 277.8L850.2 275.4L848.9 278.3L847.7 275.6L847.6 278.7L846.1 279.2L841.4 274.1L842.6 273.6L841.8 272.3L842.5 270.7L846.4 271.3L841.6 268.4L840.3 269.8L840.8 265.9L842.3 266.1L841.6 263.9L839.4 264.9L839 266.3L839.4 261.7L840.1 262.9L841.9 262.2L841.8 260L840.9 260.4L841.1 262.1L839.3 259.3L840.2 254.7L842.9 253.3L842.6 248.9L840.5 249.9L841.6 251.7L839.2 254.5L838.3 252.4L838.5 255.8L836.8 254L837.6 257L836.3 258.8L833.5 257.8L836.8 260.1L838 262.7L836.8 263.9L837.3 265.3L836.2 268.8L838.1 274L841 276.7L839.9 278.3L841.6 278.7L843.8 284.2L841.2 281.9L840.8 283.3L838.3 281.3L834.6 281.5L833 279L833.8 281.3L832.2 280.7L829.9 277.6L827 280.2L826.1 279.8L825.3 277.7L827.1 273.8L827.9 269.9L829.7 267.2L827 265.3L825.9 267L818.2 264.2L818.7 261.5L816.6 260.2L813.9 260.3L812.3 257.3L810.6 256.4L810.8 254.4L807.7 255L804.5 253.4L803.3 255.4L801.8 255.2L800.4 256.6L800.4 258.3L797 258.6L794.2 256.7L792.3 261.6L789.7 261.4L787.1 265.8L784.1 268.5L782.3 256.9Z"><title>Maryland</title></path><path class="off" d="M677.1 130.8L682 132.3L681.1 133.6L679.8 133.4L677.1 130.8ZM663.5 133.2L664.6 134.5L663.5 133.2ZM662.4 138.6L663 134.8L664 134.8L664.5 138.1L663.5 139L662.4 138.6ZM660.9 135.6L661.7 135.3L661.5 136.4L660.9 135.6ZM658.8 142.5L659.7 143.9L658.8 142.5ZM656.6 149.6L658 149.5L658.2 151.3L656.6 149.6ZM655.4 152.7L656.6 152.1L655.4 152.7ZM645.5 139.9L646.4 141.5L645.5 139.9ZM651.9 227.6L655.1 224.2L659.8 210.2L658.9 198L652.4 184.3L653.8 180.1L651.9 174.9L655.2 168L654.9 159.7L657.1 158.7L657.1 154.9L658.5 154.8L659.1 153.3L661.1 153.5L663.6 147.8L664.8 147.2L663.8 149.2L664.7 150.6L663.6 152.7L664.3 152.2L664.5 153.7L663.9 155.9L665 157.2L666.3 152L665.3 157.4L666.1 157.6L667.8 153.2L667.3 145.5L669.6 143.3L674.2 141.9L671.2 140.3L670.5 138.3L672.9 134.4L671.7 133.8L675.1 133.7L675.4 132.7L680.6 135.2L684.6 135.1L686.6 137.8L696.7 139.9L698.8 141.7L701.3 147L699.1 146.2L698.4 147.2L698.8 148.9L700.9 150.3L702.2 153.9L702.4 162.5L699.8 164.4L699.2 169.4L697.7 170.1L697.8 171L695.4 171.5L694.4 173.2L694.1 177.1L695.1 178.8L699.5 179.8L702 176.6L702.1 173L702.5 173.9L703.7 172.6L702.4 172.1L709.9 167.7L713 169.1L715.2 172.4L718.9 185.8L721.5 191.2L720.9 199.8L718.5 202.2L717.8 200.5L719.1 198.7L716.3 199.4L716.8 201.4L715.4 202.5L715.1 206.5L712.9 207.6L712.5 212.9L709 218.4L708.3 221.7L685.8 225.4L685.6 223.9L651.9 227.6ZM601.4 92.4L610.1 85.8L613.6 84.4L610.1 88.7L605.2 91.4L606.6 91.7L603.5 93.3L601.4 92.4ZM585.3 123.1L591.3 120.2L594.8 116.8L600.5 115.8L604.9 112.1L606.9 111.9L615.1 102.8L621.7 99.8L624.4 99.7L625.9 101.1L622.2 101.8L622.5 102.8L618.6 106.1L615.4 111.8L615.6 116.6L620.1 111.5L618.2 114.7L619.7 113L624 112.5L628.3 114.3L630.6 117.9L632.6 118.9L633.1 120.8L638.5 119.7L641.8 121.6L642.2 120.6L643.6 121.4L643.2 119L644.1 118.6L645.3 120.6L651.8 115.2L662 114L666.6 111.5L670 111L669 112.8L669.8 117.6L673.2 118L675.7 116.8L676.5 118.3L678.5 117.5L679 116.1L683.4 114.8L684.4 121.5L682.8 121.7L682.5 123L684.5 122.7L686.1 123.6L685.5 124.6L687 125.7L689 126.3L690.2 126.2L689.4 123.8L693.2 123.6L695.2 125.8L694.8 127.1L685.2 127.2L681.2 128.8L676.5 126.6L675.7 131.6L671.2 128.3L662.9 127.3L660.4 130.5L657.3 130.7L657 131.8L654.9 131.1L651.3 131.9L650.3 135.5L647 137.7L646.8 140L645 138.4L646.9 136.1L647.3 133.5L645.8 134.9L643.6 134.5L643 137.7L641.4 138.5L639.9 135.4L639.6 138.4L637.9 139.6L632.4 153L629.9 151.5L631 147.6L630.2 146.5L629.3 147.5L627.3 147L628.2 140.2L624.6 137.7L623.1 138.1L622.7 135L616.1 133.4L611.9 133.8L606.7 131.4L590.3 128L588.3 124.2L585.3 123.1Z"><title>Michigan</title></path><path class="off" d="M644.5 493.1L646.5 492.9L644.5 493.1ZM639.3 492.9L643 493.2L639.3 492.9ZM635.2 493.9L637 493.5L635.2 493.9ZM631.8 493.6L633.2 493.5L632.8 494.3L631.8 493.6ZM589.4 433.1L590.1 431.7L588.6 430.7L590.7 429.8L591.4 426.9L590.4 427.7L589.5 425.1L590.9 423.3L590.4 422.8L588.9 424.5L588.2 423.7L589.6 422.4L588.9 421.8L587.6 423.2L588.5 421.8L587.6 420.4L589.3 419.6L587.4 417.8L588.7 417L591.1 417.7L588.9 416.6L588.9 415.5L591.8 415.1L590.2 413.3L591.2 411.9L589.7 410.8L591 410.1L591.4 411L591.5 409.7L593.4 409.4L593.6 408.2L592 407L594.2 406.9L594.5 405.8L592.3 405.2L592.8 404.5L593.9 405.3L594.1 403.9L595.8 402.9L595.3 401.6L597.3 402.4L598.6 400.4L599.1 397.5L598.1 394.5L598.8 394L598.9 395.3L600.4 394.3L598.4 393L599.3 391.4L599.4 393L600.5 392.4L599.8 389.5L600.9 390.5L604 388.7L602.8 386.7L641.6 384L643.7 386.2L642.2 455L646.5 489.5L644.4 490.8L636.2 489.7L629.1 492.3L628.5 490.7L626.2 495.2L624.8 495.4L622.9 494.5L621.2 489.5L617.6 484.9L619.6 477.2L582.6 479.2L584 478.2L582.2 473.1L584.6 472.8L583.3 470L583.9 469.2L585.3 470.7L584.4 467L586.4 466L584.2 465.1L586.5 464.8L586.4 462.8L589 461.4L587 461.4L587.4 459.5L588.8 459.4L592.3 455.5L590.6 454.6L591.8 454.8L593.4 452.2L590.5 452.9L590.4 451.5L593.6 450.9L593.8 449L595.4 448.2L593.6 447.8L593.3 445.5L590.9 444.9L591.2 443.9L593.4 444.5L591.5 443.2L592.5 441.1L590.8 442.6L590.1 441.4L591.8 439.3L589.8 439L590 436.7L591.3 435.6L590.9 433.6L590 433.6L589.8 435.4L588.6 434.8L589.4 433.1Z"><title>Mississippi</title></path><path class="on" d="M198.1 39L232.9 46.1L284.5 54.8L326 60.5L376.9 65.7L371.1 134.3L369.1 155.7L320.8 150.9L257.8 142L256 153.9L251.5 146.7L249.9 147.5L249.1 151.2L245.9 150.2L243.8 151.1L243.3 149.7L239.3 150.1L236.7 148.5L234.6 150.9L228.5 149L227 151.6L224.8 149.1L224.1 141.5L222.5 140.1L220.8 140.7L219.4 138.5L220.2 134.2L216.9 127.4L217.2 123L216.1 122.8L216.9 121L214.6 118.2L208.1 122.6L206.6 120L205.2 119.7L205.3 117.9L206.4 117.5L205.8 114.9L209.1 113.1L208.1 107.3L209.5 106.4L209.5 104.3L213.4 96.3L208.9 95.6L208.1 93.1L206.8 93.8L206.8 91.9L204.8 89.7L205.3 88.4L203.7 86.9L200.8 79.7L198 78L195.3 74.3L197 74.2L195.8 71.8L196.9 71.1L196.8 68.7L193.3 61.5L198.1 39Z"><title>Montana</title></path><path class="off" d="M886.1 110.5L886.6 105.9L885.8 105.4L887.8 103.3L890.5 103.9L890.9 102.4L903.6 143.5L907.5 147.2L907.8 149.2L910.2 150.1L909.5 154.8L906.2 156L902.9 160.7L884.1 164.8L881.7 161.7L882.7 158.5L880.6 145.8L883.1 133L881.8 127.9L885.1 126.3L887.9 122.1L887.5 119.1L885.6 116.8L886.9 112.7L886.1 110.5Z"><title>New Hampshire</title></path><path class="off" d="M899.3 195.7L900.8 194.4L899.3 195.7ZM896.7 198L897.6 197.5L896.7 198ZM868.9 217.2L869.5 218.4L868.5 220.3L866.6 221.4L866.9 218.3L868.9 217.2ZM815.5 153.8L816.2 152.7L815.5 153.8ZM814.2 153.7L815.2 152.8L814.2 153.7ZM767.5 200.3L776.4 192.1L777.5 188.8L780.3 186.1L776.6 180.2L775.5 180.1L774.8 176L783.8 171.7L795.8 170.3L799.8 171.9L811.4 167.8L816.6 161.8L818.4 161.6L819.6 159.9L818.1 154.9L816.9 154.4L819.3 152.5L814.7 150.3L815 146.4L820.5 141.3L828.6 127.9L834.4 123.1L857.6 117.8L859.2 127.3L861.4 130.5L861.3 139.5L864.1 145.3L863.9 149.7L865.6 148.3L867.1 150.3L871 167.6L871.2 184L874.1 201L875.7 202.6L872.3 206L874.1 208.3L872.2 212L873 213L873.7 211.1L877.1 208.5L881.6 208.4L882.7 206.7L890.9 204.2L896.5 198.7L895.6 200.6L896.8 201.3L898.3 200.7L899.5 201.8L901.5 199.4L903.1 199.5L883.4 214.4L871.7 219.3L871.7 218.5L870.3 218.8L869.2 216.4L870.1 209L855 204L853.9 202.5L849.7 202.4L847.5 199.9L846.3 195.3L844.5 194.3L843.2 194.8L840.9 192.1L768.6 206.4L767.5 200.3Z"><title>New York</title></path><path class="off" d="M720.6 223L721.6 222.5L720.6 223ZM718.7 222.3L718.6 220.8L719.6 221.1L718.7 222.3ZM685.8 225.4L708.3 221.7L717.6 225.5L719 223.6L725.6 227.4L733 223.3L737.5 223.2L744.2 215.9L756.1 209L761.1 239.2L758.9 241L760.5 243.2L760.9 246.6L759.5 252.5L759.8 256.2L758.9 256.6L758.8 263L753.7 269.4L751.7 270.6L749.8 269.4L748.1 271.4L748.1 273L746.4 273.1L745.2 275.5L745.7 277.3L744.6 277.8L746 281.3L745 280.9L744 282.7L741.4 279.5L738.6 285.4L739.9 289.3L738 290.5L737.9 293.5L733.2 294.8L730.5 292L728.4 291.7L727 287.9L720.6 292.4L716.2 290.6L713.9 292.7L710.2 290.2L703.9 289.8L701.7 285.5L698.5 283.2L696.4 284.6L693.7 283.2L692.5 284.3L685.8 225.4Z"><title>Ohio</title></path><path class="on" d="M71 70.2L72 70.3L72.9 73.5L77 73.8L79.5 76.9L80.1 80L79 86.8L84.9 91.1L88.6 91.3L93.8 89.9L101.1 91.9L102.7 93.1L102.8 94.7L107.5 95.1L112 93.9L115.3 95.9L127.5 95.3L129.4 94.2L136.2 95.7L138.7 94.8L170.5 102.4L172 106.8L175 109L175.7 112.3L166.8 124.1L166.6 126.2L164.2 129.1L161.9 129.9L157.4 136.6L157.9 139.9L160.9 141.2L161.7 143.3L160.1 144.5L160.4 146.1L157.9 150.5L148.9 190.7L100.5 179.2L32.6 160L31.1 156.7L31.4 151.6L33.6 146.5L32.8 139.9L45.4 120.7L58.3 89.6L62.2 75L63.6 73.9L63.8 68.9L65.7 71.1L65.7 70.3L67.9 71L71 70.2Z"><title>Oregon</title></path><path class="off" d="M611.9 363.1L614.2 360.1L612.2 357.3L615.1 356.7L613.6 355.9L615.4 354.2L614.7 351.5L615.6 351.5L616.3 352.2L616.9 351.3L641.4 349.5L640.8 345.4L644.8 346.1L719.8 338.7L755.5 334L755.7 339.8L754.2 339.5L752.4 341.1L750.7 345.5L746.1 345.9L741.8 350.7L740.8 350.5L740.1 348.3L737.8 350.2L737.2 352.1L735.7 351.7L734.6 355.9L731.6 356.5L726.3 361.7L719.2 363.8L717 366.7L717.3 369.2L712.6 371.4L712.7 376.8L689.2 379.7L641.6 384L602.8 386.7L603.1 385.7L604.6 385.9L605.2 383.8L607.1 383.2L605.1 379.7L606.6 377.6L604.7 377.7L604.8 376.8L606.6 375.7L606.9 377.1L607 373.8L609.2 374.5L608.4 372.9L610.1 370.8L609 371.2L608.4 369.4L612.7 367.3L611.5 365.7L613.7 365.2L611.9 363.1Z"><title>Tennessee</title></path><path class="on" d="M197.7 201.1L247.2 209.6L243.5 232.2L277.1 237.2L264.6 328L176 313.3L197.7 201.1Z"><title>Utah</title></path><path class="off" d="M855.5 283.8L856.1 282.7L862.5 280.5L861.3 284.3L859.2 285.8L856.6 301.3L854.2 304.2L852.6 300.7L852.6 296.6L853.7 287.9L855.6 285.9L854.2 285.2L855.5 283.8ZM849.9 285L849.4 286L848.9 285.2L849.9 285ZM747.1 313.2L747.9 313.7L746.8 314.7L748.2 316.7L753.4 320.1L755.4 319.7L758.5 316.2L761.3 318.1L766.7 315.4L767 312.7L768.8 313.7L773 310.5L773.8 311.7L776.6 309.3L775.9 308.1L777.5 306.3L776 305.1L782.6 290.6L783.8 282.9L785.9 283.4L787.3 285.4L790.3 285.9L794 275L796.6 276.6L797.4 273.6L800.3 271.2L802.9 266L802.6 259.1L812.9 264.9L813.9 260.3L816.6 260.2L818.7 261.5L818.2 264.2L825.9 267L827.9 269.9L827.1 273.8L825.1 274L824.5 278.6L825.8 280.9L829.6 278.7L831.9 282.6L838.2 282.9L840.5 285.2L845.9 287.3L845.1 289.3L845.3 292.9L846.2 293.2L845.1 294L842.3 293.8L840.5 291.3L834 287.8L842.2 294.6L846.4 294.9L845.5 296.1L847 296L847.8 297.3L848 300.4L845.1 298.9L844.8 299.8L846.9 301.5L844.5 302.6L848.6 304.6L849 307.5L847.3 308.7L842.9 306L841.9 303.8L840.1 304.8L837.8 303.7L836.6 304.6L840.5 305.7L841.3 304.4L842.2 307.4L846 309.2L846.3 310.5L848.5 309.4L849.3 310.1L848.8 308.5L849.8 308.1L853.1 308.8L854.4 308L858.8 315.9L794.2 328.7L755.5 334L719.8 338.7L729 334.2L729.8 331.5L733.1 330.3L733 328.2L735.4 326.3L735.2 324.6L741.2 320.4L747.1 313.2Z"><title>Virginia</title></path><path class="on" d="M93.2 50.9L94.9 47.8L95.7 50.9L93.2 50.9ZM98.7 24.6L99 23.8L99.8 24.9L98.7 24.6ZM98.9 20.3L100 22.7L98.9 20.3ZM97.7 23.5L98.6 24.1L97.7 24.5L97.7 23.5ZM95 31L98.5 27.7L99.3 30.6L98 30.2L95.8 31.6L97.4 32.7L97.1 36.6L98.3 35.1L99.6 36.9L98.7 39.7L97.9 37.5L96.7 37.6L96.8 33.1L95 31ZM95.5 17.9L97.5 19.7L95.5 17.9ZM93.6 19.6L94.6 19.3L93.6 19.6ZM95.2 13L96.1 13.8L95.2 13ZM91 21.2L92.6 21.1L94 22.9L93.4 21.4L95.9 19.9L98.1 21.8L96.9 22.4L95.6 26.6L91.6 23.8L91 21.2ZM91.1 19.1L92.7 20.8L91.1 19.1ZM183.6 35.9L170.1 94.1L171.3 98.5L170.5 102.4L138.7 94.8L136.2 95.7L129.4 94.2L127.5 95.3L115.3 95.9L112 93.9L107.5 95.1L102.8 94.7L102.7 93.1L101.1 91.9L93.8 89.9L88.6 91.3L84.9 91.1L79 86.8L80.1 80L79.5 76.9L77 73.8L72.9 73.5L72 70.3L71 70.2L68.6 68.5L65.9 69.2L64.2 66.9L63 67.6L65.5 59.8L64.7 65.5L65.6 65.8L65.9 63.1L66.4 63.7L67.5 62.7L67.2 60.2L69.7 59L69 58L67 58.6L65.9 57.2L66.3 53.6L66.8 54.6L70.7 53.9L67.5 50.7L65.8 52.9L67.2 47.5L66.6 43L67.6 34.1L65.5 28.3L66 23.6L68.1 20.5L67.4 19.1L69.7 20.2L76.9 27.1L85.2 30.8L88.9 30.7L90.2 33L92 33.3L92 35.6L93.1 34.7L92.7 33.1L94.6 32.9L93.7 33.9L93.9 35L95.3 34L95.2 36L94.3 36L95.3 39.1L93.9 39.1L91 42.7L92 40.3L91.1 40.4L83.8 48.2L87.7 48.6L88.5 48L84.6 47.6L88.1 44.1L91.8 43.1L95.6 39.9L95.7 37.9L96.6 39L92.4 52.4L91.2 53.6L90.2 51.8L91.1 50.1L90.1 50.6L89.5 52.7L90.5 53.7L89.1 55.2L87.9 51.7L89.1 50.1L87.6 51.3L87 53.6L89.4 55.7L92.8 51.7L93.9 53.2L96.1 51.9L96.1 46.6L97.5 46.2L96.5 44.8L100.1 39L101.5 38.7L100.5 32.6L99.1 33.1L100 36.3L98.2 34.1L98.7 31.6L100.5 32L100.9 30.4L99.5 27.4L97.9 27.5L97.5 26.4L99.1 25.3L100.9 27L101 24.9L102.4 24.4L101.9 20.2L99.6 20.5L100.2 19.7L98.9 16.8L99.8 16L98.8 15.5L100 14.4L183.6 35.9Z"><title>Washington</title></path><path class="off" d="M641.9 146.3L642.2 144.7L643.9 144.9L642.9 146.9L641.9 146.3ZM635.6 150.4L636.5 151.2L635.6 150.4ZM584 113.3L585 111.5L584 113.3ZM583.2 116.2L584.4 115.4L583.2 116.2ZM581.2 115.2L583.1 114.1L582.8 115.3L581.2 115.2ZM579.6 117.2L580.8 115.8L579.6 117.2ZM579.8 114.4L580.7 115.4L579.8 114.4ZM579.1 113L581.1 112.2L582.7 113.4L580.9 114.6L579.1 113ZM579.2 118.5L581.8 116.3L582.6 116.9L581.3 118.2L579.3 119.2L579.2 118.5ZM576 114.1L576.8 113.7L576.8 114.6L576 114.1ZM560.2 121.1L563.3 121.4L578.3 114.6L579.7 116.1L577 122.8L580 121.6L580.2 120.5L585.3 123.1L588.3 124.2L590.3 128L606.7 131.4L611.9 133.8L616.1 133.4L622.7 135L623.1 138.1L624.6 137.7L628.2 140.2L627.3 147L629.3 147.5L630.2 146.5L631 147.6L629.9 151.5L632.4 153L632 155.7L629 156.6L626.9 162.1L626.2 165.6L628.1 166.1L632.6 158.9L635.3 157.4L635.8 158.1L637.9 150.9L639.7 150.2L640.5 147.8L641.6 147.6L641.8 149.4L641 149.3L641 152.4L635.5 165.1L634.7 170.5L635.4 173.6L633.5 175.5L632.5 180.8L633.4 185.3L630.8 195.3L631.7 200.9L634.1 205.7L634.2 212.4L587 215.4L585.6 212.4L579.9 210.5L577.4 201.6L579.2 198.7L576.5 196.3L576.3 193.3L575.6 187.1L572.3 182.2L569.8 181.6L564.9 177.8L563.9 174.9L559.2 172.7L556.9 170.1L553.6 169.9L549.3 165.9L549.7 153.6L551.3 149.9L549.3 147.4L547.5 147.3L547.6 144L550.1 139.9L556.4 135.6L555.9 122.3L557.4 122.4L557.5 121L559 120.2L560.2 121.1Z"><title>Wisconsin</title></path><path class="on" d="M365.3 201L403.8 203.9L456.8 206.2L464.3 211.7L467.8 209.4L477.9 210.1L479.3 211.8L486.6 214.7L486.2 215.6L488 217.9L490.6 218.3L491.7 219.3L491.1 221.5L492.6 224.2L492.3 225.8L494.2 229.6L495.9 230.2L495.3 231.7L496.9 234L496.4 239.9L499.3 241.9L498.9 244.7L500.1 245.2L499.2 245.8L499.5 248.1L500.7 248.2L500 248.8L501.2 255.1L499.9 258.5L502 261.9L502.1 263.2L503.6 262.4L503.3 264.5L504.7 268.1L507.1 270L508.2 274.5L509.9 275.2L453.9 274.6L393.9 271.9L395.3 249L361.4 246.5L365.3 201Z"><title>Nebraska</title></path><path class="off" d="M734.9 373.7L740.7 371.4L747.2 367L772 364.7L772.4 367.1L774.1 365.4L777.5 368.8L777.6 371.5L798.1 368.4L822.8 386.1L819.8 387.9L816.3 392.2L813.5 398.8L813.6 403.6L811.3 405.9L811 407.9L806.9 408.6L806.5 410.1L807.4 410.8L802.9 415.1L802.1 414.5L801.4 415.4L802.6 415.6L802.5 416.8L800.6 419L794.9 422.9L792.2 422.9L793.4 425.2L793 426.9L790 428.8L788.3 427.5L787.4 428.4L789.5 429.8L786.1 434.6L781.4 433.4L778.7 425.8L774 422.7L771.3 414.4L765.7 411.8L763.6 408.7L761.6 407.7L761.9 405.8L756 402.3L752.6 398.1L748.3 396.2L741.1 385.4L738.4 385.4L731.7 381.5L731.6 379L734.9 373.7Z"><title>South Carolina</title></path><path class="on" d="M170.5 102.4L171.3 98.5L170.1 94.1L183.6 35.9L198.1 39L193.3 61.5L196.8 68.7L196.9 71.1L195.8 71.8L197 74.2L195.3 74.3L198 78L200.8 79.7L203.7 86.9L205.3 88.4L204.8 89.7L206.8 91.9L206.8 93.8L208.1 93.1L208.9 95.6L213.4 96.3L209.5 104.3L209.5 106.4L208.1 107.3L209.1 113.1L205.8 114.9L206.4 117.5L205.3 117.9L205.2 119.7L206.6 120L208.1 122.6L214.6 118.2L216.9 121L216.1 122.8L217.2 123L216.9 127.4L220.2 134.2L219.4 138.5L220.8 140.7L222.5 140.1L224.1 141.5L224.8 149.1L227 151.6L228.5 149L234.6 150.9L236.7 148.5L239.3 150.1L243.3 149.7L243.8 151.1L245.9 150.2L249.1 151.2L249.9 147.5L251.5 146.7L256 153.9L247.2 209.6L197.7 201.1L148.9 190.7L157.9 150.5L160.4 146.1L160.1 144.5L161.7 143.3L160.9 141.2L157.9 139.9L157.4 136.6L161.9 129.9L164.2 129.1L166.6 126.2L166.8 124.1L175.7 112.3L175 109L172 106.8L170.5 102.4Z"><title>Idaho</title></path><path class="on" d="M100.5 179.2L148.9 190.7L197.7 201.1L176 313.3L172.6 331.5L170 334.9L168.4 334.8L166.6 331.5L163.1 330.6L159.5 331.4L160.1 336.5L159 337.8L158.2 345.1L158.7 352.8L157.1 354L156.8 356.2L83.3 245.5L100.5 179.2Z"><title>Nevada</title></path><path class="off" d="M857.6 117.8L886.1 110.5L886.9 112.7L885.6 116.8L887.5 119.1L887.9 122.1L885.1 126.3L881.8 127.9L883.1 133L880.6 145.8L882.7 158.5L881.7 161.7L884.1 164.8L871 167.6L867.1 150.3L865.6 148.3L863.9 149.7L864.1 145.3L861.3 139.5L861.4 130.5L859.2 127.3L857.6 117.8Z"><title>Vermont</title></path><path class="off" d="M637.5 497.4L639 500L638.2 504L638.7 501.1L637.5 497.4ZM628.5 497.9L631.3 495.4L630.7 496.9L631.8 498L630.8 499.1L628.5 497.9ZM623.7 510.2L624.9 509.9L624.3 510.8L623.7 510.2ZM609.5 520.8L610.2 520.3L611 521.4L609.5 520.8ZM606 521.3L608.7 521.8L606 521.3ZM602.2 522.4L604.1 522.2L602.2 522.4ZM576.5 511.5L579.9 510.5L582.6 512L580 513.9L576.5 511.5ZM535 434.7L589.4 433.1L588.6 434.8L589.8 435.4L590 433.6L590.9 433.6L591.3 435.6L590 436.7L589.8 439L591.8 439.3L590.1 441.4L590.8 442.6L592.5 441.1L591.5 443.2L593.4 444.5L591.2 443.9L590.9 444.9L593.3 445.5L593.6 447.8L595.4 448.2L593.8 449L593.6 450.9L590.4 451.5L590.5 452.9L593.4 452.2L591.8 454.8L590.6 454.6L592.3 455.5L588.8 459.4L587.4 459.5L587 461.4L589 461.4L586.4 462.8L586.5 464.8L584.2 465.1L586.4 466L584.4 467L585.3 470.7L583.9 469.2L583.3 470L584.6 472.8L582.2 473.1L584 478.2L582.6 479.2L619.6 477.2L617.6 484.9L621.2 489.5L622.9 494.5L624.8 495.4L623 496.1L621.2 499.1L619.2 498.9L619 501.1L621.1 500.7L621.9 502.7L623.8 502.3L623.9 499.7L625.7 497.6L627.9 498.5L626.9 499.9L628.2 501.3L630 499.3L631.1 499.7L629.2 501.8L630.5 502.2L628 503L630.2 503.5L629.7 504.7L628.1 504.1L626.7 507.3L625.4 505.7L625.4 507.5L622.8 507.8L624.1 509.1L622.5 508.2L623.4 509.3L622.5 509.6L625.8 511.9L626.3 513.4L630.2 513.1L631.7 514.7L632.4 513.8L634.8 517.2L636.1 516.6L636.6 517.3L634.9 517.8L636 518.4L635.5 519.4L634.7 519L634.2 521.8L631.8 519.9L628.8 523.6L631.1 517.7L630.3 517.3L629.8 519L628.6 519.1L623.8 515.7L619.8 515.3L612.6 521.1L610.8 517.1L609.8 516.3L608.8 518L608.1 515.4L607.3 516.7L604.9 516.6L603.2 520.7L601.2 521.5L601 522.8L599.9 522.5L597.9 519.8L591.5 518.6L590.3 517.5L591.6 516L594.6 518.3L594.3 516.3L592.5 514.3L590.2 515.4L589.6 512.7L587.7 513.7L585.7 510.1L583.8 510.2L584.2 507.9L579.1 508.6L580 505.9L577.2 505.9L574.5 508.2L572.8 507.9L574.8 509.2L574.8 511L576.2 510.6L576.1 511.6L570.6 513.1L553.6 508.2L547.7 508.4L540.6 510.4L538.9 507.5L543.1 502.1L542.7 496.6L541.7 495.7L543 493.3L542.1 491L545.5 484.5L546 481.8L545.2 480.5L546.1 479.9L545.4 476.2L544.4 476.5L544 474.4L542.7 473.5L541.8 469.1L539.6 467L539.8 463L535.5 457.9L535 434.7Z"><title>Louisiana</title></path><path class="off" d="M910.5 182.8L911.6 182.9L912.8 186.4L911.8 187.6L910.5 184L911 187.2L909.1 188.3L910.5 182.8ZM908.4 188.4L908.5 186.1L908.4 188.4ZM906.7 196L907 194.3L907.8 195.9L906.7 196ZM901.7 193.5L902.2 191.1L898.8 178L905.5 176L907.7 181L909.8 182.1L909.3 184L906.7 181.2L907.6 190.7L901.7 193.5Z"><title>Rhode Island</title></path><circle class="pin pin--place" cx="207.1" cy="340" r="4.5"><title>Grand Canyon</title></circle><circle class="pin pin--place" cx="222.4" cy="367.3" r="4.5"><title>Meteor Crater</title></circle><circle class="pin pin--place" cx="228.7" cy="444.8" r="4.5"><title>Tombstone</title></circle><circle class="pin pin--place" cx="237.8" cy="381.6" r="4.5"><title>Snowflake</title></circle><circle class="pin pin--place" cx="448.9" cy="516.2" r="4.5"><title>Alamo</title></circle><circle class="pin pin--place" cx="516" cy="513.8" r="4.5"><title>Johnson Space Center</title></circle><circle class="pin pin--place" cx="803.4" cy="512.6" r="4.5"><title>Kennedy Space Center</title></circle><circle class="pin pin--place" cx="199.7" cy="162.6" r="4.5"><title>Ketchum</title></circle><circle class="pin pin--place" cx="199.7" cy="161.9" r="4.5"><title>Ernest Hemingway House</title></circle><circle class="pin pin--place" cx="322.3" cy="155.6" r="4.5"><title>Sheridan</title></circle><circle class="pin pin--place" cx="294.1" cy="192.7" r="4.5"><title>Riverton</title></circle><circle class="pin pin--place" cx="373.2" cy="170.2" r="4.5"><title>Deadwood</title></circle><circle class="pin pin--place" cx="93.1" cy="98.5" r="4.5"><title>Timberline Lodge</title></circle><circle class="pin pin--place" cx="62.2" cy="76.5" r="4.5"><title>Haystack Rock</title></circle><circle class="pin pin--place" cx="62.6" cy="126.1" r="4.5"><title>Row River Trail</title></circle><circle class="pin pin--place" cx="41.8" cy="129.2" r="4.5"><title>North Bend</title></circle><circle class="pin pin--place" cx="83.8" cy="81.1" r="4.5"><title>Ariel Store</title></circle><circle class="pin pin--place" cx="57.4" cy="235.1" r="4.5"><title>Marysville</title></circle><circle class="pin pin--place" cx="59.5" cy="277" r="4.5"><title>Hilmar</title></circle><circle class="pin pin--place" cx="79" cy="301" r="4.5"><title>Reedley College</title></circle><circle class="pin pin--place" cx="85.3" cy="253.2" r="4.5"><title>Markleeville</title></circle><circle class="pin pin--place" cx="78" cy="298.3" r="4.5"><title>Sanger</title></circle><circle class="pin pin--place" cx="75.5" cy="218" r="4.5"><title>Taylorsville</title></circle><circle class="pin pin--place" cx="83.2" cy="206.4" r="4.5"><title>Lassen County</title></circle><circle class="pin pin--place" cx="50.4" cy="324.5" r="4.5"><title>Cal Poly</title></circle><circle class="pin pin--place" cx="75.2" cy="295.1" r="4.5"><title>Fresno State</title></circle><circle class="pin pin--place" cx="305.5" cy="430.2" r="4.5"><title>White Sands</title></circle><circle class="pin pin--place" cx="448.7" cy="516.2" r="4.5"><title>San Antonio</title></circle><circle class="pin pin--place" cx="448.8" cy="516.2" r="4.5"><title>River Walk</title></circle><circle class="pin pin--place" cx="234.7" cy="239.5" r="4.5"><title>Snow Park</title></circle><circle class="pin pin--place" cx="787.8" cy="517.8" r="4.5"><title>Discovery Cove</title></circle><circle class="pin pin--place" cx="88.1" cy="234.1" r="4.5"><title>Reno</title></circle><circle class="pin pin--place" cx="152.9" cy="328.2" r="4.5"><title>Las Vegas</title></circle><circle class="pin pin--place" cx="97.6" cy="46.4" r="4.5"><title>Seattle</title></circle><circle class="pin pin--ski" cx="318.8" cy="273.7" r="4.5"><title>Vail</title></circle><circle class="pin pin--ski" cx="234.5" cy="238.8" r="4.5"><title>Park City</title></circle><circle class="pin pin--ski" cx="307.8" cy="282.4" r="4.5"><title>Aspen Snowmass</title></circle><circle class="pin pin--ski" cx="256.5" cy="174.4" r="4.5"><title>Jackson Hole</title></circle><circle class="pin pin--ski" cx="234.7" cy="239.5" r="4.5"><title>Deer Valley</title></circle><circle class="pin pin--ski" cx="323.8" cy="278.1" r="4.5"><title>Breckenridge</title></circle><circle class="pin pin--ski" cx="252.9" cy="134.9" r="4.5"><title>Big Sky</title></circle><circle class="pin pin--ski" cx="314" cy="254.5" r="4.5"><title>Steamboat</title></circle><circle class="pin pin--ski" cx="79.9" cy="240.2" r="4.5"><title>Palisades Tahoe</title></circle><circle class="pin pin--ski" cx="84" cy="247.2" r="4.5"><title>Heavenly</title></circle><circle class="pin pin--ski" cx="231.8" cy="240" r="4.5"><title>Snowbird</title></circle><circle class="pin pin--ski" cx="200.2" cy="162.3" r="4.5"><title>Sun Valley</title></circle><circle class="pin pin--ski" cx="80.3" cy="256.8" r="4.5"><title>Bear Valley</title></circle><circle class="pin pin--peak" cx="84.2" cy="275.4" r="4.5"><title>Half Dome</title></circle><circle class="pin pin--peak" cx="82.3" cy="275.2" r="4.5"><title>El Capitan</title></circle><circle class="pin pin--peak" cx="99.4" cy="306.7" r="4.5"><title>Mt. Whitney</title></circle></svg>
